<?xml version="1.0" standalone="no"?>
<!DOCTYPE svg PUBLIC "-//W3C//DTD SVG 20010904//EN"
 "http://www.w3.org/TR/2001/REC-SVG-20010904/DTD/svg10.dtd">
<svg version="1.0" xmlns="http://www.w3.org/2000/svg"
 width="248.000000pt" height="418.000000pt" viewBox="0 0 248.000000 418.000000"
 preserveAspectRatio="xMidYMid meet">

<g transform="translate(0.000000,418.000000) scale(0.100000,-0.100000)"
fill="#000000" stroke="none">
<path d="M1105 3675 c-217 -34 -339 -93 -488 -234 -144 -137 -260 -410 -307
-721 -21 -136 -40 -224 -71 -317 -17 -51 -27 -98 -23 -104 9 -15 87 -4 118 17
72 46 124 -33 126 -188 0 -49 3 -58 18 -58 25 0 57 36 80 90 l19 44 42 -62
c23 -35 61 -76 83 -92 62 -46 85 -39 68 20 -5 19 -8 36 -5 38 8 8 110 -21 142
-40 18 -11 47 -39 64 -63 18 -25 36 -42 40 -39 5 3 12 23 15 45 4 22 10 42 15
44 9 6 22 -52 17 -75 -4 -21 42 -13 69 12 l21 20 12 -22 c16 -31 0 -40 -72
-40 -31 0 -69 -5 -85 -11 -25 -9 -160 -140 -280 -271 -40 -43 -55 -78 -35 -78
5 0 73 72 153 160 79 89 153 163 164 165 75 14 362 44 440 46 89 2 93 1 118
-27 12 -15 27 -32 34 -39 18 -19 5 -25 -49 -25 -26 0 -48 -3 -48 -7 0 -5 34
-8 74 -8 l75 0 -21 35 c-12 19 -30 47 -40 62 -11 16 -14 28 -8 30 6 2 12 28
15 58 3 46 8 59 34 82 36 32 69 36 77 11 24 -76 36 -76 78 -2 32 58 41 59 27
3 -6 -22 -16 -60 -22 -86 -7 -27 -9 -51 -6 -55 12 -11 81 16 129 52 27 19 64
60 84 90 l36 54 25 -49 c34 -68 77 -112 105 -108 26 3 26 9 3 97 -18 68 -17
163 2 182 8 8 18 6 37 -6 29 -19 95 -28 114 -16 11 6 9 16 -8 48 -17 33 -22
70 -30 202 -11 177 -40 362 -70 447 -10 30 -34 80 -53 111 -19 32 -49 87 -67
122 -43 86 -93 153 -171 227 -79 74 -138 115 -232 159 -98 47 -168 63 -327 75
-156 12 -150 12 -255 -5z m318 -26 c95 -14 199 -45 267 -79 176 -89 370 -311
459 -524 63 -153 101 -353 102 -548 0 -68 4 -114 8 -103 6 16 9 13 14 -15 3
-19 8 -43 12 -52 6 -15 1 -18 -28 -18 -19 0 -40 7 -47 15 -20 25 -48 18 -66
-17 -20 -38 -15 -148 9 -215 9 -26 11 -43 5 -43 -13 0 -78 68 -78 81 0 5 -11
32 -24 60 -27 56 -24 82 20 147 36 52 40 111 15 187 -12 35 -19 74 -16 87 3
13 1 59 -4 103 -8 79 -8 78 -10 -60 -3 -306 -39 -467 -126 -563 -36 -40 -120
-90 -132 -78 -3 3 3 38 15 78 25 89 29 112 42 303 6 83 12 160 12 172 1 12 12
26 25 32 45 21 41 77 -16 256 -49 151 -117 315 -133 315 -5 0 -2 -13 6 -28 27
-52 93 -235 125 -343 54 -185 41 -213 -80 -187 l-64 13 -128 255 c-97 194
-133 276 -149 343 -12 48 -23 85 -25 84 -2 -2 10 -100 27 -218 16 -118 32
-234 36 -259 3 -25 8 -55 11 -67 5 -20 1 -23 -28 -23 -36 0 -36 -8 2 -13 20
-3 25 -10 27 -40 3 -35 2 -37 -27 -37 -24 0 -29 -3 -24 -16 5 -15 -1 -16 -46
-12 -43 4 -59 12 -90 42 -49 48 -61 46 -59 -6 1 -37 2 -39 5 -10 5 36 17 41
33 12 18 -33 58 -53 108 -54 40 -1 47 -4 44 -19 -2 -10 2 -43 8 -73 19 -93
102 -164 190 -164 56 0 93 21 114 67 11 21 23 46 27 55 5 10 9 42 9 72 l0 55
28 -10 c27 -9 29 -13 26 -57 -2 -26 -6 -91 -10 -145 l-6 -98 -61 -31 c-69 -34
-246 -81 -350 -92 -57 -6 -67 -10 -63 -24 2 -10 7 -44 11 -77 4 -33 12 -66 17
-72 6 -7 9 -13 7 -14 -31 -6 -57 -9 -128 -15 l-83 -7 13 24 c7 13 12 25 11 27
-1 1 -2 31 -2 67 0 64 1 65 27 65 52 0 16 9 -102 24 -221 29 -379 78 -395 122
-5 13 -14 83 -21 155 -11 124 -10 133 7 146 26 19 40 16 90 -18 25 -17 47 -29
50 -26 2 2 -11 15 -31 28 -19 13 -35 27 -35 30 0 8 53 19 91 19 16 0 28 -3 28
-7 -1 -5 0 -26 1 -48 l3 -40 6 50 6 50 70 0 70 0 3 -60 c4 -77 -19 -140 -62
-166 -42 -26 -111 -25 -156 2 -44 27 -55 41 -88 109 -17 36 -28 49 -30 38 -5
-24 46 -114 80 -144 36 -30 102 -48 147 -40 76 12 121 72 129 171 l5 65 46 0
c25 0 53 5 61 10 10 7 -1 9 -37 4 -80 -10 -93 7 -118 151 -18 102 -45 394 -45
485 0 40 -4 70 -10 70 -5 0 -10 -21 -10 -47 0 -27 -5 -68 -11 -93 -30 -126
-58 -342 -60 -448 -1 -94 -1 -93 -91 -105 -45 -6 -49 -5 -62 22 -33 62 -46
270 -27 434 7 70 -4 81 -14 12 -9 -69 -25 -316 -25 -407 0 -72 -3 -89 -17 -97
-17 -10 -17 -10 0 -11 15 0 17 -10 17 -73 0 -40 4 -98 10 -128 5 -30 12 -85
15 -124 4 -38 8 -72 10 -76 3 -3 7 -35 10 -70 l6 -64 -52 50 c-29 28 -61 59
-71 70 -48 54 -121 325 -135 505 -3 44 -9 77 -13 75 -4 -3 -5 -34 -2 -70 4
-61 3 -68 -21 -93 -57 -59 -73 -152 -38 -221 24 -45 91 -108 126 -117 25 -6
32 -18 16 -28 -5 -3 -12 -18 -16 -33 -7 -28 -42 -73 -57 -73 -4 0 -8 20 -8 43
0 59 -24 134 -51 163 -27 29 -69 31 -140 8 -27 -9 -52 -15 -54 -12 -2 2 8 38
24 79 16 41 50 180 75 309 55 279 83 375 143 495 73 147 142 226 268 312 93
62 155 91 272 122 121 33 272 40 406 20z m-407 -693 c8 -87 18 -173 21 -189 6
-27 4 -30 -15 -24 -63 19 -67 20 -55 7 6 -7 26 -15 44 -19 27 -5 35 -13 42
-40 4 -18 7 -34 5 -36 -2 -1 -31 -5 -65 -9 l-63 -7 0 73 c0 98 40 401 62 468
0 3 3 -11 5 -30 2 -19 10 -107 19 -194z m690 -323 c-1 -2 -41 2 -88 8 l-86 11
-4 35 c-2 18 -2 36 1 38 2 3 22 5 43 5 21 0 38 4 38 8 0 5 -19 8 -42 8 l-42
-1 -12 85 c-7 47 -17 115 -23 153 -6 37 -11 77 -11 88 0 12 51 -81 114 -207
63 -126 114 -230 112 -231z m-951 0 c6 -19 4 -23 -16 -23 -23 0 -24 3 -22 62
1 35 3 65 3 68 1 3 7 -15 15 -40 7 -25 16 -55 20 -67z m755 -3 c0 -5 -9 -10
-21 -10 -11 0 -17 5 -14 10 3 6 13 10 21 10 8 0 14 -4 14 -10z m248 -25 c28
-7 32 -12 32 -39 0 -50 -28 -132 -56 -165 -35 -42 -79 -49 -140 -22 -83 37
-109 73 -120 165 -6 53 -5 56 15 56 12 0 28 8 37 18 14 17 22 17 107 6 51 -7
107 -16 125 -19z m-1214 -287 c8 -29 13 -54 10 -57 -7 -7 -85 51 -106 80 -45
61 -42 151 8 216 l27 36 23 -111 c12 -61 29 -135 38 -164z m1546 131 c0 -48
-16 -109 -30 -109 -4 0 -4 19 1 43 4 23 8 65 9 92 0 36 3 46 10 35 5 -8 10
-36 10 -61z m-288 -243 c-17 -19 -35 -50 -42 -70 -14 -45 -24 -45 -37 -3 -8
29 -13 32 -47 31 -28 -1 -46 -10 -70 -33 -27 -27 -31 -38 -30 -81 0 -32 -4
-49 -10 -47 -10 3 -19 15 -63 83 -12 18 -13 18 -28 -1 -9 -11 -15 -33 -13 -50
3 -26 0 -30 -22 -30 -31 0 -50 35 -50 96 l0 46 58 6 c87 10 247 53 316 85 72
34 86 22 38 -32z m-1027 30 c41 -28 181 -62 378 -91 l37 -6 0 -69 c0 -68 -12
-91 -25 -50 -8 26 -17 25 -45 -5 -30 -32 -36 -31 -43 3 -9 38 -45 94 -57 87
-6 -3 -10 -26 -10 -51 0 -24 -1 -44 -3 -44 -2 0 -24 20 -49 44 -45 42 -58 48
-174 71 -25 5 -30 15 -39 79 -8 49 -2 55 30 32z m739 -248 c-3 -5 -11 -8 -19
-8 -12 0 -14 20 -5 60 0 3 7 -6 14 -20 8 -14 12 -28 10 -32z"/>
<path d="M1300 2382 c0 -5 9 -17 20 -27 25 -22 17 -35 -21 -35 -30 0 -40 23
-19 48 5 7 0 3 -11 -7 -32 -28 -18 -51 29 -51 46 0 65 15 51 41 -11 21 -49 45
-49 31z"/>
<path d="M1220 1838 c-137 -16 -165 -21 -152 -25 7 -3 49 0 95 6 45 6 111 13
147 17 36 3 67 7 69 10 7 6 -75 2 -159 -8z"/>
<path d="M1670 1797 c0 -8 21 -43 46 -78 81 -109 304 -489 304 -516 0 -4 -20
-16 -44 -26 -40 -17 -118 -67 -103 -67 3 0 32 16 64 35 86 52 92 49 130 -48
51 -130 94 -277 100 -342 4 -42 18 -87 48 -150 48 -100 68 -184 59 -249 -6
-43 11 -120 25 -112 9 6 -6 197 -20 256 -5 25 -26 79 -46 119 -26 55 -38 96
-44 155 -25 227 -195 592 -429 925 -74 105 -90 122 -90 98z"/>
<path d="M1265 1640 c-183 -151 -191 -156 -220 -140 -18 10 -35 10 -67 3 l-43
-11 53 -1 c51 -1 54 -2 69 -38 9 -21 29 -79 44 -130 29 -90 108 -268 116 -259
2 2 -3 21 -11 41 -21 49 -20 58 4 51 11 -3 29 -8 39 -11 12 -4 27 2 38 14 10
11 30 22 44 26 32 8 59 60 59 115 0 21 5 51 12 65 14 32 -6 100 -36 121 -23
16 -66 19 -66 4 0 -5 -12 -10 -27 -10 l-28 0 35 27 c48 37 109 102 127 136 18
35 14 91 -7 94 -8 1 -69 -42 -135 -97z m140 42 c-16 -76 -153 -202 -219 -202
-19 0 -37 -4 -40 -8 -3 -5 19 -7 49 -4 54 4 145 -12 178 -32 11 -7 17 -23 17
-45 0 -30 -2 -33 -22 -27 -50 14 -180 37 -185 32 -5 -5 33 -15 128 -35 54 -11
57 -14 63 -46 8 -41 -14 -99 -43 -114 -18 -10 -20 -8 -23 31 -3 40 -6 45 -48
66 -24 12 -56 22 -70 21 -24 -1 -24 -1 5 -10 54 -18 94 -42 100 -60 8 -24 -20
-89 -39 -89 -28 0 -46 12 -46 31 0 10 -4 19 -10 19 -5 0 -10 -9 -10 -20 0 -11
-4 -20 -9 -20 -21 0 -122 301 -102 308 6 2 48 34 92 70 45 37 107 87 138 111
31 25 62 51 70 58 20 21 34 1 26 -35z m-40 -215 c7 -7 4 -8 -8 -3 -10 3 -25 6
-33 6 -8 0 -14 5 -14 11 0 12 40 2 55 -14z"/>
<path d="M578 1498 c-146 -157 -337 -465 -399 -645 -20 -60 -25 -123 -9 -123
6 0 10 13 10 28 0 82 99 288 247 514 l45 68 31 -17 c18 -9 43 -24 56 -34 13
-11 29 -19 35 -19 11 1 -86 65 -108 73 -6 2 24 45 67 95 42 51 72 92 66 92 -6
0 -25 -15 -41 -32z"/>
<path d="M860 1454 c-22 -20 -40 -41 -40 -47 0 -6 17 5 38 25 20 19 46 40 57
46 17 10 18 11 3 12 -10 0 -36 -16 -58 -36z"/>
<path d="M792 1355 c-10 -22 -16 -24 -54 -19 -40 6 -46 3 -78 -30 -19 -19 -48
-41 -65 -48 -55 -21 -84 -49 -130 -119 -61 -94 -79 -132 -103 -214 -21 -73
-56 -237 -67 -315 -10 -76 6 -36 21 52 38 220 78 339 158 465 45 73 61 89 114
114 26 12 62 37 81 56 24 25 39 33 55 29 11 -3 28 -6 37 -6 12 0 20 -15 28
-47 l10 -48 -4 48 c-3 32 0 59 10 78 9 16 12 29 7 29 -5 0 -14 -11 -20 -25z"/>
<path d="M1846 1118 c-21 -375 -17 -457 33 -813 6 -38 13 -92 16 -120 11 -98
17 -121 24 -102 5 14 12 7 36 -33 16 -27 33 -50 37 -50 11 0 -6 33 -47 90 -22
31 -34 62 -38 95 -3 28 -13 110 -22 184 -9 73 -14 135 -12 137 2 2 14 -22 27
-54 13 -31 49 -109 81 -172 31 -63 60 -126 64 -139 7 -22 6 -23 -36 -16 -32 4
-40 3 -29 -4 8 -6 30 -11 49 -11 32 0 33 1 27 33 -3 18 -37 93 -74 167 -37 74
-83 177 -102 229 l-33 93 6 294 c7 296 4 382 -7 192z"/>
<path d="M1234 1056 c-5 -13 -34 -44 -64 -68 -51 -41 -55 -47 -58 -92 -2 -28
1 -46 6 -42 15 9 34 -79 23 -106 -12 -31 -33 -48 -116 -92 -79 -43 -115 -72
-115 -95 0 -33 -48 -117 -87 -152 -22 -20 -63 -44 -92 -54 -56 -18 -68 -31
-22 -22 72 15 123 49 162 110 21 33 41 75 45 94 7 40 38 65 141 118 109 56
114 69 84 234 -11 60 -13 57 61 106 21 14 40 36 44 50 8 34 0 41 -12 11z"/>
<path d="M177 649 c-10 -38 1 -154 17 -194 45 -107 108 -145 256 -154 l95 -6
-3 -147 c-3 -132 -2 -148 13 -148 14 0 16 17 13 155 -3 149 -2 155 17 157 11
1 -34 4 -100 7 -147 7 -201 29 -240 95 -32 55 -58 168 -50 218 7 40 -8 54 -18
17z"/>
<path d="M1570 527 c0 -24 270 -527 283 -527 5 0 0 15 -11 33 -18 29 -93 169
-221 407 -28 52 -51 92 -51 87z"/>
<path d="M2315 198 c13 -67 57 -198 66 -198 13 0 13 0 -27 121 -35 107 -52
141 -39 77z"/>
</g>
</svg>
