<svg width="797" height="304" viewBox="0 0 797 304" fill="none" xmlns="http://www.w3.org/2000/svg">
    <rect width="797" height="304" fill="white"/>
    <g clip-path="url(#clip0_0_1)" filter="url(#filter0_d_0_1)">
        <g filter="url(#filter1_d_0_1)">
            <rect x="4.5" y="2.5" width="114" height="44" rx="6.5" stroke="black" shape-rendering="crispEdges"/>
        </g>
        <g filter="url(#filter2_d_0_1)">
            <path d="M24 50.5H773C783.77 50.5 792.5 59.2304 792.5 70V276C792.5 286.77 783.77 295.5 773 295.5H24C13.2304 295.5 4.5 286.77 4.5 276V70C4.5 59.2304 13.2304 50.5 24 50.5Z"
                  stroke="black" shape-rendering="crispEdges"/>
        </g>
        <path d="M17.7614 85V70.4545H19.5227V76.9318H27.2784V70.4545H29.0398V85H27.2784V78.4943H19.5227V85H17.7614ZM32.3388 85V74.0909H34.0149V85H32.3388ZM33.1911 72.2727C32.8643 72.2727 32.5826 72.1615 32.3459 71.9389C32.1139 71.7164 31.9979 71.4489 31.9979 71.1364C31.9979 70.8239 32.1139 70.5563 32.3459 70.3338C32.5826 70.1113 32.8643 70 33.1911 70C33.5178 70 33.7971 70.1113 34.0291 70.3338C34.2659 70.5563 34.3842 70.8239 34.3842 71.1364C34.3842 71.4489 34.2659 71.7164 34.0291 71.9389C33.7971 72.1615 33.5178 72.2727 33.1911 72.2727ZM39.5849 83.0114L39.4712 83.7784C39.3907 84.3182 39.2676 84.8958 39.1019 85.5114C38.9409 86.1269 38.7728 86.7069 38.5977 87.2514C38.4225 87.7959 38.2781 88.2292 38.1644 88.5511H36.886C36.9476 88.2481 37.0281 87.848 37.1275 87.3509C37.2269 86.8537 37.3263 86.2973 37.4258 85.6818C37.5299 85.071 37.6152 84.446 37.6815 83.8068L37.7667 83.0114H39.5849ZM50.304 70.4545V85H48.5426V70.4545H50.304ZM55.0856 70.4545V71.733C55.0856 72.1212 55.0146 72.5355 54.8725 72.9759C54.7352 73.4115 54.5316 73.8352 54.2617 74.2472C53.9966 74.6544 53.6746 75.0095 53.2958 75.3125L52.3867 74.5739C52.685 74.1477 52.9431 73.705 53.1609 73.2457C53.3834 72.7817 53.4947 72.2869 53.4947 71.7614V70.4545H55.0856ZM56.87 85V74.0909H58.4893V75.7955H58.6314C58.8587 75.2131 59.2256 74.7609 59.7322 74.4389C60.2389 74.1122 60.8473 73.9489 61.5575 73.9489C62.2772 73.9489 62.8762 74.1122 63.3544 74.4389C63.8374 74.7609 64.2138 75.2131 64.4837 75.7955H64.5973C64.8767 75.232 65.2957 74.7846 65.8544 74.4531C66.4131 74.117 67.0831 73.9489 67.8643 73.9489C68.8397 73.9489 69.6375 74.2543 70.2578 74.8651C70.8781 75.4711 71.1882 76.4157 71.1882 77.6989V85H69.5121V77.6989C69.5121 76.8939 69.2919 76.3187 68.8516 75.973C68.4112 75.6274 67.8928 75.4545 67.2962 75.4545C66.5291 75.4545 65.9349 75.6866 65.5135 76.1506C65.0921 76.6098 64.8814 77.1922 64.8814 77.8977V85H63.1768V77.5284C63.1768 76.9081 62.9756 76.4086 62.5732 76.0298C62.1707 75.6463 61.6522 75.4545 61.0178 75.4545C60.5821 75.4545 60.175 75.5705 59.7962 75.8026C59.4221 76.0346 59.1191 76.3565 58.8871 76.7685C58.6598 77.1757 58.5462 77.6468 58.5462 78.1818V85H56.87ZM81.8665 70.4545V85H80.1051V70.4545H81.8665ZM92.8981 76.5341L91.3924 76.9602C91.2977 76.7093 91.158 76.4654 90.9734 76.2287C90.7934 75.9872 90.5472 75.7884 90.2347 75.6321C89.9222 75.4759 89.5221 75.3977 89.0344 75.3977C88.3668 75.3977 87.8105 75.5516 87.3654 75.8594C86.9251 76.1624 86.7049 76.5483 86.7049 77.017C86.7049 77.4337 86.8564 77.7628 87.1594 78.0043C87.4625 78.2457 87.936 78.447 88.5799 78.608L90.1992 79.0057C91.1746 79.2424 91.9014 79.6046 92.3796 80.0923C92.8578 80.5753 93.0969 81.1979 93.0969 81.9602C93.0969 82.5852 92.917 83.1439 92.5572 83.6364C92.2021 84.1288 91.7049 84.517 91.0657 84.8011C90.4265 85.0852 89.6831 85.2273 88.8356 85.2273C87.7229 85.2273 86.802 84.9858 86.0728 84.5028C85.3436 84.0199 84.882 83.3144 84.6879 82.3864L86.2788 81.9886C86.4303 82.5758 86.7167 83.0161 87.1381 83.3097C87.5643 83.6032 88.1206 83.75 88.8072 83.75C89.5884 83.75 90.2087 83.5843 90.668 83.2528C91.132 82.9167 91.364 82.5142 91.364 82.0455C91.364 81.6667 91.2314 81.3494 90.9663 81.0938C90.7011 80.8333 90.2939 80.6392 89.7447 80.5114L87.9265 80.0852C86.9274 79.8485 86.1935 79.4815 85.7248 78.9844C85.2608 78.4825 85.0288 77.8551 85.0288 77.1023C85.0288 76.4867 85.2016 75.9422 85.5472 75.4688C85.8976 74.9953 86.3735 74.6236 86.9748 74.3537C87.5808 74.0838 88.2674 73.9489 89.0344 73.9489C90.114 73.9489 90.9615 74.1856 91.5771 74.6591C92.1973 75.1326 92.6377 75.7576 92.8981 76.5341ZM98.8303 85.2557C98.139 85.2557 97.5116 85.1255 96.9482 84.8651C96.3847 84.5999 95.9373 84.2188 95.6058 83.7216C95.2744 83.2197 95.1087 82.6136 95.1087 81.9034C95.1087 81.2784 95.2318 80.7718 95.478 80.3835C95.7242 79.9905 96.0533 79.6828 96.4652 79.4602C96.8771 79.2377 97.3317 79.072 97.8288 78.9631C98.3307 78.8494 98.835 78.7595 99.3416 78.6932C100.004 78.608 100.542 78.544 100.954 78.5014C101.371 78.4541 101.674 78.3759 101.863 78.267C102.057 78.1581 102.154 77.9687 102.154 77.6989V77.642C102.154 76.9413 101.962 76.3968 101.579 76.0085C101.2 75.6203 100.625 75.4261 99.853 75.4261C99.0528 75.4261 98.4254 75.6013 97.9709 75.9517C97.5163 76.3021 97.1967 76.6761 97.0121 77.0739L95.4212 76.5057C95.7053 75.8428 96.084 75.3267 96.5575 74.9574C97.0357 74.5833 97.5566 74.3229 98.12 74.1761C98.6882 74.0246 99.2469 73.9489 99.7962 73.9489C100.147 73.9489 100.549 73.9915 101.004 74.0767C101.463 74.1572 101.906 74.3253 102.332 74.581C102.763 74.8366 103.12 75.2225 103.404 75.7386C103.688 76.2547 103.83 76.946 103.83 77.8125V85H102.154V83.5227H102.069C101.955 83.7595 101.766 84.0128 101.501 84.2827C101.236 84.5526 100.883 84.7822 100.442 84.9716C100.002 85.161 99.4647 85.2557 98.8303 85.2557ZM99.0859 83.75C99.7488 83.75 100.308 83.6198 100.762 83.3594C101.221 83.099 101.567 82.7628 101.799 82.3509C102.036 81.9389 102.154 81.5057 102.154 81.0511V79.517C102.083 79.6023 101.927 79.6804 101.685 79.7514C101.449 79.8177 101.174 79.8769 100.862 79.929C100.554 79.9763 100.253 80.0189 99.9595 80.0568C99.6707 80.09 99.4363 80.1184 99.2564 80.142C98.8208 80.1989 98.4136 80.2912 98.0348 80.419C97.6607 80.5421 97.3577 80.7292 97.1257 80.9801C96.8984 81.2263 96.7848 81.5625 96.7848 81.9886C96.7848 82.571 97.0002 83.0114 97.4311 83.3097C97.8667 83.6032 98.4183 83.75 99.0859 83.75ZM106.89 85V74.0909H108.566V85H106.89ZM107.742 72.2727C107.415 72.2727 107.133 72.1615 106.897 71.9389C106.665 71.7164 106.549 71.4489 106.549 71.1364C106.549 70.8239 106.665 70.5563 106.897 70.3338C107.133 70.1113 107.415 70 107.742 70C108.069 70 108.348 70.1113 108.58 70.3338C108.817 70.5563 108.935 70.8239 108.935 71.1364C108.935 71.4489 108.817 71.7164 108.58 71.9389C108.348 72.1615 108.069 72.2727 107.742 72.2727ZM114.846 85.2557C114.155 85.2557 113.527 85.1255 112.964 84.8651C112.4 84.5999 111.953 84.2188 111.621 83.7216C111.29 83.2197 111.124 82.6136 111.124 81.9034C111.124 81.2784 111.247 80.7718 111.494 80.3835C111.74 79.9905 112.069 79.6828 112.481 79.4602C112.893 79.2377 113.347 79.072 113.844 78.9631C114.346 78.8494 114.851 78.7595 115.357 78.6932C116.02 78.608 116.558 78.544 116.969 78.5014C117.386 78.4541 117.689 78.3759 117.879 78.267C118.073 78.1581 118.17 77.9687 118.17 77.6989V77.642C118.17 76.9413 117.978 76.3968 117.594 76.0085C117.216 75.6203 116.64 75.4261 115.869 75.4261C115.068 75.4261 114.441 75.6013 113.987 75.9517C113.532 76.3021 113.212 76.6761 113.028 77.0739L111.437 76.5057C111.721 75.8428 112.1 75.3267 112.573 74.9574C113.051 74.5833 113.572 74.3229 114.136 74.1761C114.704 74.0246 115.263 73.9489 115.812 73.9489C116.162 73.9489 116.565 73.9915 117.019 74.0767C117.478 74.1572 117.921 74.3253 118.347 74.581C118.778 74.8366 119.136 75.2225 119.42 75.7386C119.704 76.2547 119.846 76.946 119.846 77.8125V85H118.17V83.5227H118.085C117.971 83.7595 117.781 84.0128 117.516 84.2827C117.251 84.5526 116.898 84.7822 116.458 84.9716C116.018 85.161 115.48 85.2557 114.846 85.2557ZM115.102 83.75C115.764 83.75 116.323 83.6198 116.778 83.3594C117.237 83.099 117.583 82.7628 117.815 82.3509C118.051 81.9389 118.17 81.5057 118.17 81.0511V79.517C118.099 79.6023 117.942 79.6804 117.701 79.7514C117.464 79.8177 117.19 79.8769 116.877 79.929C116.569 79.9763 116.269 80.0189 115.975 80.0568C115.686 80.09 115.452 80.1184 115.272 80.142C114.836 80.1989 114.429 80.2912 114.05 80.419C113.676 80.5421 113.373 80.7292 113.141 80.9801C112.914 81.2263 112.8 81.5625 112.8 81.9886C112.8 82.571 113.016 83.0114 113.447 83.3097C113.882 83.6032 114.434 83.75 115.102 83.75ZM124.581 78.4375V85H122.905V70.4545H124.581V75.7955H124.723C124.979 75.232 125.363 74.7846 125.874 74.4531C126.39 74.117 127.077 73.9489 127.934 73.9489C128.677 73.9489 129.328 74.098 129.887 74.3963C130.445 74.6899 130.879 75.142 131.186 75.7528C131.499 76.3589 131.655 77.1307 131.655 78.0682V85H129.979V78.1818C129.979 77.3153 129.754 76.6454 129.304 76.1719C128.859 75.6937 128.241 75.4545 127.451 75.4545C126.901 75.4545 126.409 75.5705 125.973 75.8026C125.542 76.0346 125.202 76.3731 124.951 76.8182C124.704 77.2633 124.581 77.803 124.581 78.4375ZM137.222 83.0114L137.108 83.7784C137.027 84.3182 136.904 84.8958 136.739 85.5114C136.578 86.1269 136.41 86.7069 136.234 87.2514C136.059 87.7959 135.915 88.2292 135.801 88.5511H134.523C134.584 88.2481 134.665 87.848 134.764 87.3509C134.864 86.8537 134.963 86.2973 135.062 85.6818C135.167 85.071 135.252 84.446 135.318 83.8068L135.403 83.0114H137.222ZM149.162 85.2557C148.471 85.2557 147.844 85.1255 147.28 84.8651C146.717 84.5999 146.269 84.2188 145.938 83.7216C145.606 83.2197 145.441 82.6136 145.441 81.9034C145.441 81.2784 145.564 80.7718 145.81 80.3835C146.056 79.9905 146.385 79.6828 146.797 79.4602C147.209 79.2377 147.664 79.072 148.161 78.9631C148.663 78.8494 149.167 78.7595 149.674 78.6932C150.337 78.608 150.874 78.544 151.286 78.5014C151.703 78.4541 152.006 78.3759 152.195 78.267C152.389 78.1581 152.486 77.9687 152.486 77.6989V77.642C152.486 76.9413 152.294 76.3968 151.911 76.0085C151.532 75.6203 150.957 75.4261 150.185 75.4261C149.385 75.4261 148.757 75.6013 148.303 75.9517C147.848 76.3021 147.529 76.6761 147.344 77.0739L145.753 76.5057C146.037 75.8428 146.416 75.3267 146.89 74.9574C147.368 74.5833 147.889 74.3229 148.452 74.1761C149.02 74.0246 149.579 73.9489 150.128 73.9489C150.479 73.9489 150.881 73.9915 151.336 74.0767C151.795 74.1572 152.238 74.3253 152.664 74.581C153.095 74.8366 153.452 75.2225 153.736 75.7386C154.02 76.2547 154.162 76.946 154.162 77.8125V85H152.486V83.5227H152.401C152.287 83.7595 152.098 84.0128 151.833 84.2827C151.568 84.5526 151.215 84.7822 150.775 84.9716C150.334 85.161 149.797 85.2557 149.162 85.2557ZM149.418 83.75C150.081 83.75 150.64 83.6198 151.094 83.3594C151.553 83.099 151.899 82.7628 152.131 82.3509C152.368 81.9389 152.486 81.5057 152.486 81.0511V79.517C152.415 79.6023 152.259 79.6804 152.017 79.7514C151.781 79.8177 151.506 79.8769 151.194 79.929C150.886 79.9763 150.585 80.0189 150.292 80.0568C150.003 80.09 149.768 80.1184 149.588 80.142C149.153 80.1989 148.746 80.2912 148.367 80.419C147.993 80.5421 147.69 80.7292 147.458 80.9801C147.23 81.2263 147.117 81.5625 147.117 81.9886C147.117 82.571 147.332 83.0114 147.763 83.3097C148.199 83.6032 148.75 83.75 149.418 83.75ZM158.898 78.4375V85H157.222V74.0909H158.841V75.7955H158.983C159.239 75.2415 159.627 74.7964 160.148 74.4602C160.669 74.1193 161.341 73.9489 162.165 73.9489C162.903 73.9489 163.55 74.1004 164.104 74.4034C164.658 74.7017 165.089 75.1562 165.396 75.767C165.704 76.3731 165.858 77.1402 165.858 78.0682V85H164.182V78.1818C164.182 77.3248 163.959 76.6572 163.514 76.179C163.069 75.696 162.458 75.4545 161.682 75.4545C161.147 75.4545 160.669 75.5705 160.247 75.8026C159.83 76.0346 159.501 76.3731 159.26 76.8182C159.018 77.2633 158.898 77.803 158.898 78.4375ZM173.04 85.2273C172.131 85.2273 171.328 84.9976 170.632 84.5384C169.936 84.0743 169.392 83.4209 168.999 82.5781C168.606 81.7306 168.409 80.7292 168.409 79.5739C168.409 78.428 168.606 77.4337 168.999 76.5909C169.392 75.7481 169.939 75.0971 170.64 74.6378C171.34 74.1785 172.15 73.9489 173.069 73.9489C173.779 73.9489 174.34 74.0672 174.752 74.304C175.168 74.536 175.486 74.8011 175.703 75.0994C175.926 75.393 176.099 75.6345 176.222 75.8239H176.364V70.4545H178.04V85H176.421V83.3239H176.222C176.099 83.5227 175.924 83.7737 175.696 84.0767C175.469 84.375 175.145 84.6425 174.723 84.8793C174.302 85.1113 173.741 85.2273 173.04 85.2273ZM173.267 83.7216C173.94 83.7216 174.508 83.5464 174.972 83.196C175.436 82.8409 175.789 82.3509 176.03 81.7259C176.272 81.0961 176.392 80.3693 176.392 79.5455C176.392 78.7311 176.274 78.0185 176.037 77.4077C175.801 76.7921 175.45 76.3139 174.986 75.973C174.522 75.6274 173.949 75.4545 173.267 75.4545C172.557 75.4545 171.965 75.6368 171.492 76.0014C171.023 76.3613 170.67 76.8513 170.434 77.4716C170.202 78.0871 170.086 78.7784 170.086 79.5455C170.086 80.322 170.204 81.0275 170.441 81.6619C170.682 82.2917 171.037 82.7936 171.506 83.1676C171.98 83.5369 172.567 83.7216 173.267 83.7216ZM188.956 70.4545V85H187.195V70.4545H188.956ZM193.738 70.4545V71.733C193.738 72.1212 193.667 72.5355 193.525 72.9759C193.388 73.4115 193.184 73.8352 192.914 74.2472C192.649 74.6544 192.327 75.0095 191.948 75.3125L191.039 74.5739C191.337 74.1477 191.595 73.705 191.813 73.2457C192.036 72.7817 192.147 72.2869 192.147 71.7614V70.4545H193.738ZM195.522 85V74.0909H197.142V75.7955H197.284C197.511 75.2131 197.878 74.7609 198.385 74.4389C198.891 74.1122 199.5 73.9489 200.21 73.9489C200.93 73.9489 201.529 74.1122 202.007 74.4389C202.49 74.7609 202.866 75.2131 203.136 75.7955H203.25C203.529 75.232 203.948 74.7846 204.507 74.4531C205.065 74.117 205.735 73.9489 206.517 73.9489C207.492 73.9489 208.29 74.2543 208.91 74.8651C209.53 75.4711 209.841 76.4157 209.841 77.6989V85H208.164V77.6989C208.164 76.8939 207.944 76.3187 207.504 75.973C207.064 75.6274 206.545 75.4545 205.949 75.4545C205.181 75.4545 204.587 75.6866 204.166 76.1506C203.744 76.6098 203.534 77.1922 203.534 77.8977V85H201.829V77.5284C201.829 76.9081 201.628 76.4086 201.225 76.0298C200.823 75.6463 200.305 75.4545 199.67 75.4545C199.234 75.4545 198.827 75.5705 198.449 75.8026C198.074 76.0346 197.771 76.3565 197.539 76.7685C197.312 77.1757 197.199 77.6468 197.199 78.1818V85H195.522ZM221.74 85.2557C221.049 85.2557 220.422 85.1255 219.858 84.8651C219.295 84.5999 218.847 84.2188 218.516 83.7216C218.185 83.2197 218.019 82.6136 218.019 81.9034C218.019 81.2784 218.142 80.7718 218.388 80.3835C218.634 79.9905 218.963 79.6828 219.375 79.4602C219.787 79.2377 220.242 79.072 220.739 78.9631C221.241 78.8494 221.745 78.7595 222.252 78.6932C222.915 78.608 223.452 78.544 223.864 78.5014C224.281 78.4541 224.584 78.3759 224.773 78.267C224.967 78.1581 225.064 77.9687 225.064 77.6989V77.642C225.064 76.9413 224.873 76.3968 224.489 76.0085C224.11 75.6203 223.535 75.4261 222.763 75.4261C221.963 75.4261 221.336 75.6013 220.881 75.9517C220.426 76.3021 220.107 76.6761 219.922 77.0739L218.331 76.5057C218.615 75.8428 218.994 75.3267 219.468 74.9574C219.946 74.5833 220.467 74.3229 221.03 74.1761C221.598 74.0246 222.157 73.9489 222.706 73.9489C223.057 73.9489 223.459 73.9915 223.914 74.0767C224.373 74.1572 224.816 74.3253 225.242 74.581C225.673 74.8366 226.03 75.2225 226.314 75.7386C226.598 76.2547 226.74 76.946 226.74 77.8125V85H225.064V83.5227H224.979C224.865 83.7595 224.676 84.0128 224.411 84.2827C224.146 84.5526 223.793 84.7822 223.353 84.9716C222.912 85.161 222.375 85.2557 221.74 85.2557ZM221.996 83.75C222.659 83.75 223.218 83.6198 223.672 83.3594C224.132 83.099 224.477 82.7628 224.709 82.3509C224.946 81.9389 225.064 81.5057 225.064 81.0511V79.517C224.993 79.6023 224.837 79.6804 224.596 79.7514C224.359 79.8177 224.084 79.8769 223.772 79.929C223.464 79.9763 223.163 80.0189 222.87 80.0568C222.581 80.09 222.346 80.1184 222.167 80.142C221.731 80.1989 221.324 80.2912 220.945 80.419C220.571 80.5421 220.268 80.7292 220.036 80.9801C219.809 81.2263 219.695 81.5625 219.695 81.9886C219.695 82.571 219.91 83.0114 220.341 83.3097C220.777 83.6032 221.328 83.75 221.996 83.75ZM243.152 76.5341L241.646 76.9602C241.552 76.7093 241.412 76.4654 241.227 76.2287C241.047 75.9872 240.801 75.7884 240.489 75.6321C240.176 75.4759 239.776 75.3977 239.288 75.3977C238.621 75.3977 238.064 75.5516 237.619 75.8594C237.179 76.1624 236.959 76.5483 236.959 77.017C236.959 77.4337 237.11 77.7628 237.413 78.0043C237.716 78.2457 238.19 78.447 238.834 78.608L240.453 79.0057C241.429 79.2424 242.155 79.6046 242.634 80.0923C243.112 80.5753 243.351 81.1979 243.351 81.9602C243.351 82.5852 243.171 83.1439 242.811 83.6364C242.456 84.1288 241.959 84.517 241.32 84.8011C240.68 85.0852 239.937 85.2273 239.089 85.2273C237.977 85.2273 237.056 84.9858 236.327 84.5028C235.598 84.0199 235.136 83.3144 234.942 82.3864L236.533 81.9886C236.684 82.5758 236.971 83.0161 237.392 83.3097C237.818 83.6032 238.375 83.75 239.061 83.75C239.842 83.75 240.463 83.5843 240.922 83.2528C241.386 82.9167 241.618 82.5142 241.618 82.0455C241.618 81.6667 241.485 81.3494 241.22 81.0938C240.955 80.8333 240.548 80.6392 239.999 80.5114L238.18 80.0852C237.181 79.8485 236.447 79.4815 235.979 78.9844C235.515 78.4825 235.283 77.8551 235.283 77.1023C235.283 76.4867 235.455 75.9422 235.801 75.4688C236.152 74.9953 236.627 74.6236 237.229 74.3537C237.835 74.0838 238.521 73.9489 239.288 73.9489C240.368 73.9489 241.215 74.1856 241.831 74.6591C242.451 75.1326 242.892 75.7576 243.152 76.5341ZM250.306 85.2273C249.321 85.2273 248.457 84.9929 247.713 84.5241C246.975 84.0554 246.397 83.3996 245.98 82.5568C245.569 81.714 245.363 80.7292 245.363 79.6023C245.363 78.4659 245.569 77.474 245.98 76.6264C246.397 75.7789 246.975 75.1207 247.713 74.652C248.457 74.1832 249.321 73.9489 250.306 73.9489C251.291 73.9489 252.152 74.1832 252.891 74.652C253.634 75.1207 254.212 75.7789 254.624 76.6264C255.041 77.474 255.249 78.4659 255.249 79.6023C255.249 80.7292 255.041 81.714 254.624 82.5568C254.212 83.3996 253.634 84.0554 252.891 84.5241C252.152 84.9929 251.291 85.2273 250.306 85.2273ZM250.306 83.7216C251.054 83.7216 251.669 83.5298 252.152 83.1463C252.635 82.7628 252.993 82.2585 253.225 81.6335C253.457 81.0085 253.573 80.3314 253.573 79.6023C253.573 78.8731 253.457 78.1937 253.225 77.5639C252.993 76.9342 252.635 76.4252 252.152 76.0369C251.669 75.6487 251.054 75.4545 250.306 75.4545C249.558 75.4545 248.942 75.6487 248.459 76.0369C247.976 76.4252 247.619 76.9342 247.387 77.5639C247.155 78.1937 247.039 78.8731 247.039 79.6023C247.039 80.3314 247.155 81.0085 247.387 81.6335C247.619 82.2585 247.976 82.7628 248.459 83.1463C248.942 83.5298 249.558 83.7216 250.306 83.7216ZM262.665 74.0909V75.5114H256.785V74.0909H262.665ZM258.546 85V72.5852C258.546 71.9602 258.693 71.4394 258.987 71.0227C259.28 70.6061 259.661 70.2936 260.13 70.0852C260.599 69.8769 261.094 69.7727 261.614 69.7727C262.026 69.7727 262.362 69.8059 262.623 69.8722C262.883 69.9384 263.077 70 263.205 70.0568L262.722 71.5057C262.637 71.4773 262.519 71.4418 262.367 71.3991C262.22 71.3565 262.026 71.3352 261.785 71.3352C261.231 71.3352 260.831 71.4749 260.585 71.7543C260.343 72.0336 260.222 72.4432 260.222 72.983V85H258.546ZM269.759 74.0909V75.5114H264.105V74.0909H269.759ZM265.753 71.4773H267.429V81.875C267.429 82.3485 267.498 82.7036 267.635 82.9403C267.777 83.1723 267.957 83.3286 268.175 83.4091C268.398 83.4848 268.632 83.5227 268.878 83.5227C269.063 83.5227 269.214 83.5133 269.333 83.4943C269.451 83.4706 269.546 83.4517 269.617 83.4375L269.958 84.9432C269.844 84.9858 269.685 85.0284 269.482 85.071C269.278 85.1184 269.02 85.142 268.708 85.142C268.234 85.142 267.77 85.0402 267.316 84.8366C266.866 84.633 266.492 84.3229 266.194 83.9062C265.9 83.4896 265.753 82.964 265.753 82.3295V71.4773ZM274.752 85L271.428 74.0909H273.189L275.547 82.4432H275.661L277.99 74.0909H279.78L282.081 82.4148H282.195L284.553 74.0909H286.314L282.99 85H281.343L278.956 76.6193H278.786L276.4 85H274.752ZM291.74 85.2557C291.049 85.2557 290.422 85.1255 289.858 84.8651C289.295 84.5999 288.847 84.2188 288.516 83.7216C288.185 83.2197 288.019 82.6136 288.019 81.9034C288.019 81.2784 288.142 80.7718 288.388 80.3835C288.634 79.9905 288.963 79.6828 289.375 79.4602C289.787 79.2377 290.242 79.072 290.739 78.9631C291.241 78.8494 291.745 78.7595 292.252 78.6932C292.915 78.608 293.452 78.544 293.864 78.5014C294.281 78.4541 294.584 78.3759 294.773 78.267C294.967 78.1581 295.064 77.9687 295.064 77.6989V77.642C295.064 76.9413 294.873 76.3968 294.489 76.0085C294.11 75.6203 293.535 75.4261 292.763 75.4261C291.963 75.4261 291.336 75.6013 290.881 75.9517C290.426 76.3021 290.107 76.6761 289.922 77.0739L288.331 76.5057C288.615 75.8428 288.994 75.3267 289.468 74.9574C289.946 74.5833 290.467 74.3229 291.03 74.1761C291.598 74.0246 292.157 73.9489 292.706 73.9489C293.057 73.9489 293.459 73.9915 293.914 74.0767C294.373 74.1572 294.816 74.3253 295.242 74.581C295.673 74.8366 296.03 75.2225 296.314 75.7386C296.598 76.2547 296.74 76.946 296.74 77.8125V85H295.064V83.5227H294.979C294.865 83.7595 294.676 84.0128 294.411 84.2827C294.146 84.5526 293.793 84.7822 293.353 84.9716C292.912 85.161 292.375 85.2557 291.74 85.2557ZM291.996 83.75C292.659 83.75 293.218 83.6198 293.672 83.3594C294.132 83.099 294.477 82.7628 294.709 82.3509C294.946 81.9389 295.064 81.5057 295.064 81.0511V79.517C294.993 79.6023 294.837 79.6804 294.596 79.7514C294.359 79.8177 294.084 79.8769 293.772 79.929C293.464 79.9763 293.163 80.0189 292.87 80.0568C292.581 80.09 292.346 80.1184 292.167 80.142C291.731 80.1989 291.324 80.2912 290.945 80.419C290.571 80.5421 290.268 80.7292 290.036 80.9801C289.809 81.2263 289.695 81.5625 289.695 81.9886C289.695 82.571 289.91 83.0114 290.341 83.3097C290.777 83.6032 291.328 83.75 291.996 83.75ZM299.8 85V74.0909H301.419V75.7386H301.533C301.732 75.1989 302.091 74.7609 302.612 74.4247C303.133 74.0885 303.72 73.9205 304.374 73.9205C304.497 73.9205 304.651 73.9228 304.835 73.9276C305.02 73.9323 305.16 73.9394 305.254 73.9489V75.6534C305.197 75.6392 305.067 75.6179 304.864 75.5895C304.665 75.5563 304.454 75.5398 304.232 75.5398C303.701 75.5398 303.228 75.651 302.811 75.8736C302.399 76.0914 302.072 76.3944 301.831 76.7827C301.594 77.1662 301.476 77.6042 301.476 78.0966V85H299.8ZM311.483 85.2273C310.432 85.2273 309.525 84.9953 308.763 84.5312C308.005 84.0625 307.42 83.4091 307.009 82.571C306.601 81.7282 306.398 80.7481 306.398 79.6307C306.398 78.5133 306.601 77.5284 307.009 76.6761C307.42 75.8191 307.993 75.1515 308.727 74.6733C309.466 74.1903 310.328 73.9489 311.312 73.9489C311.881 73.9489 312.442 74.0436 312.996 74.233C313.55 74.4223 314.054 74.7301 314.509 75.1562C314.963 75.5777 315.325 76.1364 315.595 76.8324C315.865 77.5284 316 78.3854 316 79.4034V80.1136H307.591V78.6648H314.295C314.295 78.0492 314.172 77.5 313.926 77.017C313.685 76.5341 313.339 76.1529 312.889 75.8736C312.444 75.5942 311.919 75.4545 311.312 75.4545C310.645 75.4545 310.067 75.6203 309.58 75.9517C309.097 76.2784 308.725 76.7045 308.464 77.2301C308.204 77.7557 308.074 78.3191 308.074 78.9205V79.8864C308.074 80.7102 308.216 81.4086 308.5 81.9815C308.789 82.5497 309.189 82.983 309.7 83.2812C310.212 83.5748 310.806 83.7216 311.483 83.7216C311.923 83.7216 312.321 83.66 312.676 83.5369C313.036 83.4091 313.346 83.2197 313.607 82.9688C313.867 82.7131 314.068 82.3958 314.21 82.017L315.83 82.4716C315.659 83.0208 315.373 83.5038 314.97 83.9205C314.568 84.3324 314.071 84.6544 313.479 84.8864C312.887 85.1136 312.222 85.2273 311.483 85.2273ZM328.749 85.2273C327.697 85.2273 326.791 84.9953 326.028 84.5312C325.271 84.0625 324.686 83.4091 324.274 82.571C323.867 81.7282 323.663 80.7481 323.663 79.6307C323.663 78.5133 323.867 77.5284 324.274 76.6761C324.686 75.8191 325.259 75.1515 325.993 74.6733C326.732 74.1903 327.593 73.9489 328.578 73.9489C329.146 73.9489 329.707 74.0436 330.261 74.233C330.815 74.4223 331.32 74.7301 331.774 75.1562C332.229 75.5777 332.591 76.1364 332.861 76.8324C333.131 77.5284 333.266 78.3854 333.266 79.4034V80.1136H324.857V78.6648H331.561C331.561 78.0492 331.438 77.5 331.192 77.017C330.95 76.5341 330.605 76.1529 330.155 75.8736C329.71 75.5942 329.184 75.4545 328.578 75.4545C327.911 75.4545 327.333 75.6203 326.845 75.9517C326.362 76.2784 325.991 76.7045 325.73 77.2301C325.47 77.7557 325.339 78.3191 325.339 78.9205V79.8864C325.339 80.7102 325.482 81.4086 325.766 81.9815C326.054 82.5497 326.455 82.983 326.966 83.2812C327.477 83.5748 328.071 83.7216 328.749 83.7216C329.189 83.7216 329.587 83.66 329.942 83.5369C330.302 83.4091 330.612 83.2197 330.872 82.9688C331.133 82.7131 331.334 82.3958 331.476 82.017L333.095 82.4716C332.925 83.0208 332.638 83.5038 332.236 83.9205C331.833 84.3324 331.336 84.6544 330.744 84.8864C330.152 85.1136 329.487 85.2273 328.749 85.2273ZM337.491 78.4375V85H335.815V74.0909H337.435V75.7955H337.577C337.832 75.2415 338.221 74.7964 338.741 74.4602C339.262 74.1193 339.935 73.9489 340.759 73.9489C341.497 73.9489 342.143 74.1004 342.697 74.4034C343.251 74.7017 343.682 75.1562 343.99 75.767C344.298 76.3731 344.452 77.1402 344.452 78.0682V85H342.776V78.1818C342.776 77.3248 342.553 76.6572 342.108 76.179C341.663 75.696 341.052 75.4545 340.276 75.4545C339.741 75.4545 339.262 75.5705 338.841 75.8026C338.424 76.0346 338.095 76.3731 337.854 76.8182C337.612 77.2633 337.491 77.803 337.491 78.4375ZM351.918 89.3182C351.108 89.3182 350.412 89.214 349.83 89.0057C349.248 88.8021 348.762 88.5322 348.374 88.196C347.99 87.8646 347.685 87.5095 347.458 87.1307L348.793 86.1932C348.944 86.392 349.136 86.6193 349.368 86.875C349.6 87.1354 349.917 87.3603 350.32 87.5497C350.727 87.7438 351.26 87.8409 351.918 87.8409C352.799 87.8409 353.525 87.6278 354.098 87.2017C354.671 86.7756 354.958 86.108 354.958 85.1989V82.983H354.816C354.693 83.1818 354.517 83.428 354.29 83.7216C354.068 84.0104 353.746 84.2685 353.324 84.4957C352.908 84.7183 352.344 84.8295 351.634 84.8295C350.753 84.8295 349.962 84.6212 349.262 84.2045C348.566 83.7879 348.014 83.1818 347.607 82.3864C347.204 81.5909 347.003 80.625 347.003 79.4886C347.003 78.3712 347.2 77.3982 347.593 76.5696C347.986 75.7363 348.533 75.0923 349.233 74.6378C349.934 74.1785 350.744 73.9489 351.662 73.9489C352.373 73.9489 352.936 74.0672 353.353 74.304C353.774 74.536 354.096 74.8011 354.319 75.0994C354.546 75.393 354.721 75.6345 354.844 75.8239H355.015V74.0909H356.634V85.3125C356.634 86.25 356.421 87.0123 355.995 87.5994C355.573 88.1913 355.005 88.6245 354.29 88.8991C353.58 89.1785 352.789 89.3182 351.918 89.3182ZM351.861 83.3239C352.533 83.3239 353.102 83.17 353.566 82.8622C354.03 82.5545 354.382 82.1117 354.624 81.5341C354.865 80.9564 354.986 80.2652 354.986 79.4602C354.986 78.6742 354.868 77.9806 354.631 77.3793C354.394 76.7779 354.044 76.3068 353.58 75.9659C353.116 75.625 352.543 75.4545 351.861 75.4545C351.151 75.4545 350.559 75.6345 350.086 75.9943C349.617 76.3542 349.264 76.8371 349.027 77.4432C348.795 78.0492 348.679 78.7216 348.679 79.4602C348.679 80.2178 348.798 80.8878 349.034 81.4702C349.276 82.0478 349.631 82.5024 350.1 82.8338C350.573 83.1605 351.16 83.3239 351.861 83.3239ZM359.702 85V74.0909H361.378V85H359.702ZM360.554 72.2727C360.228 72.2727 359.946 72.1615 359.709 71.9389C359.477 71.7164 359.361 71.4489 359.361 71.1364C359.361 70.8239 359.477 70.5563 359.709 70.3338C359.946 70.1113 360.228 70 360.554 70C360.881 70 361.16 70.1113 361.392 70.3338C361.629 70.5563 361.748 70.8239 361.748 71.1364C361.748 71.4489 361.629 71.7164 361.392 71.9389C361.16 72.1615 360.881 72.2727 360.554 72.2727ZM366.124 78.4375V85H364.448V74.0909H366.067V75.7955H366.21C366.465 75.2415 366.853 74.7964 367.374 74.4602C367.895 74.1193 368.567 73.9489 369.391 73.9489C370.13 73.9489 370.776 74.1004 371.33 74.4034C371.884 74.7017 372.315 75.1562 372.623 75.767C372.931 76.3731 373.085 77.1402 373.085 78.0682V85H371.408V78.1818C371.408 77.3248 371.186 76.6572 370.741 76.179C370.296 75.696 369.685 75.4545 368.908 75.4545C368.373 75.4545 367.895 75.5705 367.474 75.8026C367.057 76.0346 366.728 76.3731 366.487 76.8182C366.245 77.2633 366.124 77.803 366.124 78.4375ZM380.721 85.2273C379.67 85.2273 378.763 84.9953 378.001 84.5312C377.243 84.0625 376.659 83.4091 376.247 82.571C375.84 81.7282 375.636 80.7481 375.636 79.6307C375.636 78.5133 375.84 77.5284 376.247 76.6761C376.659 75.8191 377.232 75.1515 377.966 74.6733C378.704 74.1903 379.566 73.9489 380.551 73.9489C381.119 73.9489 381.68 74.0436 382.234 74.233C382.788 74.4223 383.292 74.7301 383.747 75.1562C384.201 75.5777 384.564 76.1364 384.833 76.8324C385.103 77.5284 385.238 78.3854 385.238 79.4034V80.1136H376.829V78.6648H383.534C383.534 78.0492 383.411 77.5 383.164 77.017C382.923 76.5341 382.577 76.1529 382.127 75.8736C381.682 75.5942 381.157 75.4545 380.551 75.4545C379.883 75.4545 379.306 75.6203 378.818 75.9517C378.335 76.2784 377.963 76.7045 377.703 77.2301C377.442 77.7557 377.312 78.3191 377.312 78.9205V79.8864C377.312 80.7102 377.454 81.4086 377.738 81.9815C378.027 82.5497 378.427 82.983 378.939 83.2812C379.45 83.5748 380.044 83.7216 380.721 83.7216C381.162 83.7216 381.559 83.66 381.914 83.5369C382.274 83.4091 382.584 83.2197 382.845 82.9688C383.105 82.7131 383.306 82.3958 383.449 82.017L385.068 82.4716C384.897 83.0208 384.611 83.5038 384.208 83.9205C383.806 84.3324 383.309 84.6544 382.717 84.8864C382.125 85.1136 381.46 85.2273 380.721 85.2273ZM392.362 85.2273C391.311 85.2273 390.404 84.9953 389.642 84.5312C388.884 84.0625 388.299 83.4091 387.887 82.571C387.48 81.7282 387.277 80.7481 387.277 79.6307C387.277 78.5133 387.48 77.5284 387.887 76.6761C388.299 75.8191 388.872 75.1515 389.606 74.6733C390.345 74.1903 391.207 73.9489 392.191 73.9489C392.76 73.9489 393.321 74.0436 393.875 74.233C394.429 74.4223 394.933 74.7301 395.387 75.1562C395.842 75.5777 396.204 76.1364 396.474 76.8324C396.744 77.5284 396.879 78.3854 396.879 79.4034V80.1136H388.47V78.6648H395.174C395.174 78.0492 395.051 77.5 394.805 77.017C394.564 76.5341 394.218 76.1529 393.768 75.8736C393.323 75.5942 392.797 75.4545 392.191 75.4545C391.524 75.4545 390.946 75.6203 390.458 75.9517C389.975 76.2784 389.604 76.7045 389.343 77.2301C389.083 77.7557 388.953 78.3191 388.953 78.9205V79.8864C388.953 80.7102 389.095 81.4086 389.379 81.9815C389.668 82.5497 390.068 82.983 390.579 83.2812C391.091 83.5748 391.685 83.7216 392.362 83.7216C392.802 83.7216 393.2 83.66 393.555 83.5369C393.915 83.4091 394.225 83.2197 394.485 82.9688C394.746 82.7131 394.947 82.3958 395.089 82.017L396.708 82.4716C396.538 83.0208 396.252 83.5038 395.849 83.9205C395.447 84.3324 394.949 84.6544 394.358 84.8864C393.766 85.1136 393.1 85.2273 392.362 85.2273ZM399.429 85V74.0909H401.048V75.7386H401.162C401.36 75.1989 401.72 74.7609 402.241 74.4247C402.762 74.0885 403.349 73.9205 404.002 73.9205C404.126 73.9205 404.279 73.9228 404.464 73.9276C404.649 73.9323 404.788 73.9394 404.883 73.9489V75.6534C404.826 75.6392 404.696 75.6179 404.493 75.5895C404.294 75.5563 404.083 75.5398 403.86 75.5398C403.33 75.5398 402.857 75.651 402.44 75.8736C402.028 76.0914 401.701 76.3944 401.46 76.7827C401.223 77.1662 401.105 77.6042 401.105 78.0966V85H399.429ZM406.842 85.1136C406.491 85.1136 406.191 84.9882 405.94 84.7372C405.689 84.4863 405.563 84.1856 405.563 83.8352C405.563 83.4848 405.689 83.1842 405.94 82.9332C406.191 82.6823 406.491 82.5568 406.842 82.5568C407.192 82.5568 407.493 82.6823 407.744 82.9332C407.995 83.1842 408.12 83.4848 408.12 83.8352C408.12 84.0672 408.061 84.2803 407.942 84.4744C407.829 84.6686 407.675 84.8248 407.481 84.9432C407.291 85.0568 407.078 85.1136 406.842 85.1136ZM428.685 75H426.923C426.819 74.4934 426.637 74.0483 426.376 73.6648C426.121 73.2812 425.808 72.9593 425.439 72.6989C425.074 72.4337 424.67 72.2348 424.224 72.1023C423.779 71.9697 423.315 71.9034 422.832 71.9034C421.952 71.9034 421.154 72.1259 420.439 72.571C419.729 73.0161 419.163 73.6719 418.741 74.5384C418.325 75.4048 418.116 76.4678 418.116 77.7273C418.116 78.9867 418.325 80.0497 418.741 80.9162C419.163 81.7827 419.729 82.4384 420.439 82.8835C421.154 83.3286 421.952 83.5511 422.832 83.5511C423.315 83.5511 423.779 83.4848 424.224 83.3523C424.67 83.2197 425.074 83.0232 425.439 82.7628C425.808 82.4976 426.121 82.1733 426.376 81.7898C426.637 81.4015 426.819 80.9564 426.923 80.4545H428.685C428.552 81.1979 428.311 81.8632 427.96 82.4503C427.61 83.0374 427.174 83.5369 426.653 83.9489C426.133 84.3561 425.548 84.6662 424.899 84.8793C424.255 85.0923 423.566 85.1989 422.832 85.1989C421.592 85.1989 420.489 84.8958 419.523 84.2898C418.557 83.6837 417.797 82.822 417.243 81.7045C416.689 80.5871 416.412 79.2614 416.412 77.7273C416.412 76.1932 416.689 74.8674 417.243 73.75C417.797 72.6326 418.557 71.7708 419.523 71.1648C420.489 70.5587 421.592 70.2557 422.832 70.2557C423.566 70.2557 424.255 70.3622 424.899 70.5753C425.548 70.7884 426.133 71.1009 426.653 71.5128C427.174 71.92 427.61 72.4171 427.96 73.0043C428.311 73.5866 428.552 74.2519 428.685 75ZM432.98 78.4375V85H431.304V70.4545H432.98V75.7955H433.122C433.377 75.232 433.761 74.7846 434.272 74.4531C434.788 74.117 435.475 73.9489 436.332 73.9489C437.075 73.9489 437.726 74.098 438.285 74.3963C438.844 74.6899 439.277 75.142 439.585 75.7528C439.897 76.3589 440.054 77.1307 440.054 78.0682V85H438.377V78.1818C438.377 77.3153 438.153 76.6454 437.703 76.1719C437.258 75.6937 436.64 75.4545 435.849 75.4545C435.3 75.4545 434.807 75.5705 434.372 75.8026C433.941 76.0346 433.6 76.3731 433.349 76.8182C433.103 77.2633 432.98 77.803 432.98 78.4375ZM447.694 85.2273C446.643 85.2273 445.736 84.9953 444.974 84.5312C444.216 84.0625 443.631 83.4091 443.219 82.571C442.812 81.7282 442.609 80.7481 442.609 79.6307C442.609 78.5133 442.812 77.5284 443.219 76.6761C443.631 75.8191 444.204 75.1515 444.938 74.6733C445.677 74.1903 446.539 73.9489 447.523 73.9489C448.092 73.9489 448.653 74.0436 449.207 74.233C449.761 74.4223 450.265 74.7301 450.719 75.1562C451.174 75.5777 451.536 76.1364 451.806 76.8324C452.076 77.5284 452.211 78.3854 452.211 79.4034V80.1136H443.802V78.6648H450.506C450.506 78.0492 450.383 77.5 450.137 77.017C449.896 76.5341 449.55 76.1529 449.1 75.8736C448.655 75.5942 448.129 75.4545 447.523 75.4545C446.856 75.4545 446.278 75.6203 445.79 75.9517C445.308 76.2784 444.936 76.7045 444.675 77.2301C444.415 77.7557 444.285 78.3191 444.285 78.9205V79.8864C444.285 80.7102 444.427 81.4086 444.711 81.9815C445 82.5497 445.4 82.983 445.911 83.2812C446.423 83.5748 447.017 83.7216 447.694 83.7216C448.134 83.7216 448.532 83.66 448.887 83.5369C449.247 83.4091 449.557 83.2197 449.817 82.9688C450.078 82.7131 450.279 82.3958 450.421 82.017L452.04 82.4716C451.87 83.0208 451.584 83.5038 451.181 83.9205C450.779 84.3324 450.281 84.6544 449.69 84.8864C449.098 85.1136 448.433 85.2273 447.694 85.2273ZM459.192 85.2273C458.17 85.2273 457.289 84.9858 456.55 84.5028C455.812 84.0199 455.244 83.3546 454.846 82.5071C454.448 81.6596 454.249 80.6913 454.249 79.6023C454.249 78.4943 454.453 77.5166 454.86 76.669C455.272 75.8168 455.845 75.1515 456.579 74.6733C457.317 74.1903 458.179 73.9489 459.164 73.9489C459.931 73.9489 460.622 74.0909 461.238 74.375C461.853 74.6591 462.358 75.0568 462.751 75.5682C463.144 76.0795 463.388 76.6761 463.482 77.358H461.806C461.678 76.8608 461.394 76.4205 460.954 76.0369C460.518 75.6487 459.931 75.4545 459.192 75.4545C458.539 75.4545 457.966 75.625 457.474 75.9659C456.986 76.3021 456.605 76.7779 456.33 77.3935C456.06 78.0043 455.925 78.7216 455.925 79.5455C455.925 80.3883 456.058 81.1222 456.323 81.7472C456.593 82.3722 456.972 82.8575 457.46 83.2031C457.952 83.5488 458.53 83.7216 459.192 83.7216C459.628 83.7216 460.023 83.6458 460.379 83.4943C460.734 83.3428 461.034 83.125 461.281 82.8409C461.527 82.5568 461.702 82.2159 461.806 81.8182H463.482C463.388 82.4621 463.153 83.0421 462.779 83.5582C462.41 84.0696 461.92 84.4768 461.309 84.7798C460.703 85.0781 459.997 85.2273 459.192 85.2273ZM467.495 81.0227L467.467 78.9489H467.808L472.58 74.0909H474.654L469.569 79.233H469.427L467.495 81.0227ZM465.933 85V70.4545H467.609V85H465.933ZM472.864 85L468.603 79.6023L469.796 78.4375L474.995 85H472.864ZM486.868 85.2273C485.883 85.2273 485.019 84.9929 484.276 84.5241C483.537 84.0554 482.96 83.3996 482.543 82.5568C482.131 81.714 481.925 80.7292 481.925 79.6023C481.925 78.4659 482.131 77.474 482.543 76.6264C482.96 75.7789 483.537 75.1207 484.276 74.652C485.019 74.1832 485.883 73.9489 486.868 73.9489C487.853 73.9489 488.715 74.1832 489.453 74.652C490.197 75.1207 490.775 75.7789 491.186 76.6264C491.603 77.474 491.811 78.4659 491.811 79.6023C491.811 80.7292 491.603 81.714 491.186 82.5568C490.775 83.3996 490.197 84.0554 489.453 84.5241C488.715 84.9929 487.853 85.2273 486.868 85.2273ZM486.868 83.7216C487.616 83.7216 488.232 83.5298 488.715 83.1463C489.198 82.7628 489.555 82.2585 489.787 81.6335C490.019 81.0085 490.135 80.3314 490.135 79.6023C490.135 78.8731 490.019 78.1937 489.787 77.5639C489.555 76.9342 489.198 76.4252 488.715 76.0369C488.232 75.6487 487.616 75.4545 486.868 75.4545C486.12 75.4545 485.505 75.6487 485.022 76.0369C484.539 76.4252 484.181 76.9342 483.949 77.5639C483.717 78.1937 483.601 78.8731 483.601 79.6023C483.601 80.3314 483.717 81.0085 483.949 81.6335C484.181 82.2585 484.539 82.7628 485.022 83.1463C485.505 83.5298 486.12 83.7216 486.868 83.7216ZM501.245 80.5398V74.0909H502.921V85H501.245V83.1534H501.131C500.876 83.7074 500.478 84.1785 499.938 84.5668C499.398 84.9503 498.717 85.142 497.893 85.142C497.211 85.142 496.605 84.9929 496.075 84.6946C495.544 84.3916 495.128 83.937 494.825 83.331C494.522 82.7202 494.37 81.9508 494.37 81.0227V74.0909H496.046V80.9091C496.046 81.7045 496.269 82.339 496.714 82.8125C497.164 83.286 497.737 83.5227 498.433 83.5227C498.849 83.5227 499.273 83.4162 499.704 83.2031C500.139 82.9901 500.504 82.6634 500.798 82.223C501.096 81.7827 501.245 81.2216 501.245 80.5398ZM510.735 74.0909V75.5114H505.082V74.0909H510.735ZM506.73 71.4773H508.406V81.875C508.406 82.3485 508.475 82.7036 508.612 82.9403C508.754 83.1723 508.934 83.3286 509.152 83.4091C509.374 83.4848 509.609 83.5227 509.855 83.5227C510.039 83.5227 510.191 83.5133 510.309 83.4943C510.428 83.4706 510.522 83.4517 510.593 83.4375L510.934 84.9432C510.821 84.9858 510.662 85.0284 510.458 85.071C510.255 85.1184 509.997 85.142 509.684 85.142C509.211 85.142 508.747 85.0402 508.292 84.8366C507.842 84.633 507.468 84.3229 507.17 83.9062C506.877 83.4896 506.73 82.964 506.73 82.3295V71.4773ZM526.609 76.5341L525.103 76.9602C525.009 76.7093 524.869 76.4654 524.684 76.2287C524.504 75.9872 524.258 75.7884 523.946 75.6321C523.633 75.4759 523.233 75.3977 522.745 75.3977C522.078 75.3977 521.521 75.5516 521.076 75.8594C520.636 76.1624 520.416 76.5483 520.416 77.017C520.416 77.4337 520.567 77.7628 520.87 78.0043C521.173 78.2457 521.647 78.447 522.291 78.608L523.91 79.0057C524.886 79.2424 525.612 79.6046 526.091 80.0923C526.569 80.5753 526.808 81.1979 526.808 81.9602C526.808 82.5852 526.628 83.1439 526.268 83.6364C525.913 84.1288 525.416 84.517 524.777 84.8011C524.137 85.0852 523.394 85.2273 522.547 85.2273C521.434 85.2273 520.513 84.9858 519.784 84.5028C519.055 84.0199 518.593 83.3144 518.399 82.3864L519.99 81.9886C520.141 82.5758 520.428 83.0161 520.849 83.3097C521.275 83.6032 521.832 83.75 522.518 83.75C523.299 83.75 523.92 83.5843 524.379 83.2528C524.843 82.9167 525.075 82.5142 525.075 82.0455C525.075 81.6667 524.942 81.3494 524.677 81.0938C524.412 80.8333 524.005 80.6392 523.456 80.5114L521.637 80.0852C520.638 79.8485 519.904 79.4815 519.436 78.9844C518.972 78.4825 518.74 77.8551 518.74 77.1023C518.74 76.4867 518.913 75.9422 519.258 75.4688C519.609 74.9953 520.084 74.6236 520.686 74.3537C521.292 74.0838 521.978 73.9489 522.745 73.9489C523.825 73.9489 524.672 74.1856 525.288 74.6591C525.908 75.1326 526.349 75.7576 526.609 76.5341ZM533.763 85.2273C532.778 85.2273 531.914 84.9929 531.17 84.5241C530.432 84.0554 529.854 83.3996 529.438 82.5568C529.026 81.714 528.82 80.7292 528.82 79.6023C528.82 78.4659 529.026 77.474 529.438 76.6264C529.854 75.7789 530.432 75.1207 531.17 74.652C531.914 74.1832 532.778 73.9489 533.763 73.9489C534.748 73.9489 535.609 74.1832 536.348 74.652C537.091 75.1207 537.669 75.7789 538.081 76.6264C538.498 77.474 538.706 78.4659 538.706 79.6023C538.706 80.7292 538.498 81.714 538.081 82.5568C537.669 83.3996 537.091 84.0554 536.348 84.5241C535.609 84.9929 534.748 85.2273 533.763 85.2273ZM533.763 83.7216C534.511 83.7216 535.126 83.5298 535.609 83.1463C536.092 82.7628 536.45 82.2585 536.682 81.6335C536.914 81.0085 537.03 80.3314 537.03 79.6023C537.03 78.8731 536.914 78.1937 536.682 77.5639C536.45 76.9342 536.092 76.4252 535.609 76.0369C535.126 75.6487 534.511 75.4545 533.763 75.4545C533.015 75.4545 532.399 75.6487 531.916 76.0369C531.433 76.4252 531.076 76.9342 530.844 77.5639C530.612 78.1937 530.496 78.8731 530.496 79.6023C530.496 80.3314 530.612 81.0085 530.844 81.6335C531.076 82.2585 531.433 82.7628 531.916 83.1463C532.399 83.5298 533.015 83.7216 533.763 83.7216ZM541.265 85V74.0909H542.884V75.7955H543.026C543.253 75.2131 543.62 74.7609 544.127 74.4389C544.633 74.1122 545.242 73.9489 545.952 73.9489C546.672 73.9489 547.271 74.1122 547.749 74.4389C548.232 74.7609 548.608 75.2131 548.878 75.7955H548.992C549.271 75.232 549.69 74.7846 550.249 74.4531C550.808 74.117 551.478 73.9489 552.259 73.9489C553.234 73.9489 554.032 74.2543 554.652 74.8651C555.273 75.4711 555.583 76.4157 555.583 77.6989V85H553.907V77.6989C553.907 76.8939 553.686 76.3187 553.246 75.973C552.806 75.6274 552.287 75.4545 551.691 75.4545C550.924 75.4545 550.329 75.6866 549.908 76.1506C549.487 76.6098 549.276 77.1922 549.276 77.8977V85H547.571V77.5284C547.571 76.9081 547.37 76.4086 546.968 76.0298C546.565 75.6463 546.047 75.4545 545.412 75.4545C544.977 75.4545 544.569 75.5705 544.191 75.8026C543.817 76.0346 543.514 76.3565 543.282 76.7685C543.054 77.1757 542.941 77.6468 542.941 78.1818V85H541.265ZM563.221 85.2273C562.17 85.2273 561.263 84.9953 560.501 84.5312C559.743 84.0625 559.159 83.4091 558.747 82.571C558.34 81.7282 558.136 80.7481 558.136 79.6307C558.136 78.5133 558.34 77.5284 558.747 76.6761C559.159 75.8191 559.732 75.1515 560.466 74.6733C561.204 74.1903 562.066 73.9489 563.051 73.9489C563.619 73.9489 564.18 74.0436 564.734 74.233C565.288 74.4223 565.792 74.7301 566.247 75.1562C566.701 75.5777 567.064 76.1364 567.333 76.8324C567.603 77.5284 567.738 78.3854 567.738 79.4034V80.1136H559.329V78.6648H566.034C566.034 78.0492 565.911 77.5 565.664 77.017C565.423 76.5341 565.077 76.1529 564.627 75.8736C564.182 75.5942 563.657 75.4545 563.051 75.4545C562.383 75.4545 561.806 75.6203 561.318 75.9517C560.835 76.2784 560.463 76.7045 560.203 77.2301C559.942 77.7557 559.812 78.3191 559.812 78.9205V79.8864C559.812 80.7102 559.954 81.4086 560.238 81.9815C560.527 82.5497 560.927 82.983 561.439 83.2812C561.95 83.5748 562.544 83.7216 563.221 83.7216C563.662 83.7216 564.059 83.66 564.414 83.5369C564.774 83.4091 565.084 83.2197 565.345 82.9688C565.605 82.7131 565.806 82.3958 565.949 82.017L567.568 82.4716C567.397 83.0208 567.111 83.5038 566.708 83.9205C566.306 84.3324 565.809 84.6544 565.217 84.8864C564.625 85.1136 563.96 85.2273 563.221 85.2273ZM580.345 85.2273C579.36 85.2273 578.496 84.9929 577.752 84.5241C577.014 84.0554 576.436 83.3996 576.02 82.5568C575.608 81.714 575.402 80.7292 575.402 79.6023C575.402 78.4659 575.608 77.474 576.02 76.6264C576.436 75.7789 577.014 75.1207 577.752 74.652C578.496 74.1832 579.36 73.9489 580.345 73.9489C581.33 73.9489 582.191 74.1832 582.93 74.652C583.673 75.1207 584.251 75.7789 584.663 76.6264C585.08 77.474 585.288 78.4659 585.288 79.6023C585.288 80.7292 585.08 81.714 584.663 82.5568C584.251 83.3996 583.673 84.0554 582.93 84.5241C582.191 84.9929 581.33 85.2273 580.345 85.2273ZM580.345 83.7216C581.093 83.7216 581.708 83.5298 582.191 83.1463C582.674 82.7628 583.032 82.2585 583.264 81.6335C583.496 81.0085 583.612 80.3314 583.612 79.6023C583.612 78.8731 583.496 78.1937 583.264 77.5639C583.032 76.9342 582.674 76.4252 582.191 76.0369C581.708 75.6487 581.093 75.4545 580.345 75.4545C579.597 75.4545 578.981 75.6487 578.498 76.0369C578.015 76.4252 577.658 76.9342 577.426 77.5639C577.194 78.1937 577.078 78.8731 577.078 79.6023C577.078 80.3314 577.194 81.0085 577.426 81.6335C577.658 82.2585 578.015 82.7628 578.498 83.1463C578.981 83.5298 579.597 83.7216 580.345 83.7216ZM592.705 74.0909V75.5114H586.824V74.0909H592.705ZM588.585 85V72.5852C588.585 71.9602 588.732 71.4394 589.026 71.0227C589.319 70.6061 589.7 70.2936 590.169 70.0852C590.638 69.8769 591.133 69.7727 591.653 69.7727C592.065 69.7727 592.402 69.8059 592.662 69.8722C592.922 69.9384 593.116 70 593.244 70.0568L592.761 71.5057C592.676 71.4773 592.558 71.4418 592.406 71.3991C592.259 71.3565 592.065 71.3352 591.824 71.3352C591.27 71.3352 590.87 71.4749 590.624 71.7543C590.382 72.0336 590.261 72.4432 590.261 72.983V85H588.585ZM600.679 85V74.0909H602.298V75.7955H602.44C602.667 75.2131 603.034 74.7609 603.541 74.4389C604.047 74.1122 604.656 73.9489 605.366 73.9489C606.086 73.9489 606.685 74.1122 607.163 74.4389C607.646 74.7609 608.022 75.2131 608.292 75.7955H608.406C608.685 75.232 609.104 74.7846 609.663 74.4531C610.222 74.117 610.892 73.9489 611.673 73.9489C612.648 73.9489 613.446 74.2543 614.066 74.8651C614.687 75.4711 614.997 76.4157 614.997 77.6989V85H613.321V77.6989C613.321 76.8939 613.1 76.3187 612.66 75.973C612.22 75.6274 611.701 75.4545 611.105 75.4545C610.338 75.4545 609.743 75.6866 609.322 76.1506C608.901 76.6098 608.69 77.1922 608.69 77.8977V85H606.985V77.5284C606.985 76.9081 606.784 76.4086 606.382 76.0298C605.979 75.6463 605.461 75.4545 604.826 75.4545C604.391 75.4545 603.984 75.5705 603.605 75.8026C603.231 76.0346 602.928 76.3565 602.696 76.7685C602.468 77.1757 602.355 77.6468 602.355 78.1818V85H600.679ZM618.75 89.0909C618.466 89.0909 618.213 89.0672 617.99 89.0199C617.768 88.9773 617.614 88.9347 617.529 88.892L617.955 87.4148C618.362 87.5189 618.722 87.5568 619.034 87.5284C619.347 87.5 619.624 87.3603 619.865 87.1094C620.112 86.8632 620.337 86.4631 620.54 85.9091L620.853 85.0568L616.819 74.0909H618.637L621.648 82.7841H621.762L624.773 74.0909H626.591L621.961 86.5909C621.752 87.1544 621.494 87.6207 621.186 87.9901C620.879 88.3641 620.521 88.6411 620.114 88.821C619.712 89.0009 619.257 89.0909 618.75 89.0909ZM636.9 85L633.576 74.0909H635.338L637.696 82.4432H637.809L640.139 74.0909H641.929L644.23 82.4148H644.343L646.701 74.0909H648.463L645.139 85H643.491L641.105 76.6193H640.934L638.548 85H636.9ZM654.739 85.2273C653.754 85.2273 652.89 84.9929 652.147 84.5241C651.408 84.0554 650.831 83.3996 650.414 82.5568C650.002 81.714 649.796 80.7292 649.796 79.6023C649.796 78.4659 650.002 77.474 650.414 76.6264C650.831 75.7789 651.408 75.1207 652.147 74.652C652.89 74.1832 653.754 73.9489 654.739 73.9489C655.724 73.9489 656.586 74.1832 657.325 74.652C658.068 75.1207 658.646 75.7789 659.058 76.6264C659.474 77.474 659.683 78.4659 659.683 79.6023C659.683 80.7292 659.474 81.714 659.058 82.5568C658.646 83.3996 658.068 84.0554 657.325 84.5241C656.586 84.9929 655.724 85.2273 654.739 85.2273ZM654.739 83.7216C655.487 83.7216 656.103 83.5298 656.586 83.1463C657.069 82.7628 657.426 82.2585 657.658 81.6335C657.89 81.0085 658.006 80.3314 658.006 79.6023C658.006 78.8731 657.89 78.1937 657.658 77.5639C657.426 76.9342 657.069 76.4252 656.586 76.0369C656.103 75.6487 655.487 75.4545 654.739 75.4545C653.991 75.4545 653.376 75.6487 652.893 76.0369C652.41 76.4252 652.052 76.9342 651.82 77.5639C651.588 78.1937 651.472 78.8731 651.472 79.6023C651.472 80.3314 651.588 81.0085 651.82 81.6335C652.052 82.2585 652.41 82.7628 652.893 83.1463C653.376 83.5298 653.991 83.7216 654.739 83.7216ZM662.241 85V74.0909H663.86V75.7386H663.974C664.173 75.1989 664.533 74.7609 665.054 74.4247C665.574 74.0885 666.162 73.9205 666.815 73.9205C666.938 73.9205 667.092 73.9228 667.277 73.9276C667.461 73.9323 667.601 73.9394 667.696 73.9489V75.6534C667.639 75.6392 667.509 75.6179 667.305 75.5895C667.106 75.5563 666.895 75.5398 666.673 75.5398C666.143 75.5398 665.669 75.651 665.252 75.8736C664.841 76.0914 664.514 76.3944 664.272 76.7827C664.036 77.1662 663.917 77.6042 663.917 78.0966V85H662.241ZM671.245 81.0227L671.217 78.9489H671.558L676.33 74.0909H678.404L673.319 79.233H673.177L671.245 81.0227ZM669.683 85V70.4545H671.359V85H669.683ZM676.614 85L672.353 79.6023L673.546 78.4375L678.745 85H676.614ZM686.414 85V70.4545H688.09V75.8239H688.232C688.355 75.6345 688.525 75.393 688.743 75.0994C688.966 74.8011 689.283 74.536 689.695 74.304C690.112 74.0672 690.675 73.9489 691.385 73.9489C692.304 73.9489 693.114 74.1785 693.814 74.6378C694.515 75.0971 695.062 75.7481 695.455 76.5909C695.848 77.4337 696.044 78.428 696.044 79.5739C696.044 80.7292 695.848 81.7306 695.455 82.5781C695.062 83.4209 694.517 84.0743 693.821 84.5384C693.125 84.9976 692.323 85.2273 691.414 85.2273C690.713 85.2273 690.152 85.1113 689.73 84.8793C689.309 84.6425 688.985 84.375 688.757 84.0767C688.53 83.7737 688.355 83.5227 688.232 83.3239H688.033V85H686.414ZM688.061 79.5455C688.061 80.3693 688.182 81.0961 688.424 81.7259C688.665 82.3509 689.018 82.8409 689.482 83.196C689.946 83.5464 690.514 83.7216 691.186 83.7216C691.887 83.7216 692.472 83.5369 692.941 83.1676C693.414 82.7936 693.769 82.2917 694.006 81.6619C694.248 81.0275 694.368 80.322 694.368 79.5455C694.368 78.7784 694.25 78.0871 694.013 77.4716C693.781 76.8513 693.428 76.3613 692.955 76.0014C692.486 75.6368 691.897 75.4545 691.186 75.4545C690.505 75.4545 689.932 75.6274 689.468 75.973C689.004 76.3139 688.653 76.7921 688.417 77.4077C688.18 78.0185 688.061 78.7311 688.061 79.5455ZM703.182 85.2273C702.131 85.2273 701.224 84.9953 700.462 84.5312C699.704 84.0625 699.12 83.4091 698.708 82.571C698.301 81.7282 698.097 80.7481 698.097 79.6307C698.097 78.5133 698.301 77.5284 698.708 76.6761C699.12 75.8191 699.693 75.1515 700.426 74.6733C701.165 74.1903 702.027 73.9489 703.012 73.9489C703.58 73.9489 704.141 74.0436 704.695 74.233C705.249 74.4223 705.753 74.7301 706.208 75.1562C706.662 75.5777 707.025 76.1364 707.294 76.8324C707.564 77.5284 707.699 78.3854 707.699 79.4034V80.1136H699.29V78.6648H705.995C705.995 78.0492 705.872 77.5 705.625 77.017C705.384 76.5341 705.038 76.1529 704.588 75.8736C704.143 75.5942 703.618 75.4545 703.012 75.4545C702.344 75.4545 701.766 75.6203 701.279 75.9517C700.796 76.2784 700.424 76.7045 700.164 77.2301C699.903 77.7557 699.773 78.3191 699.773 78.9205V79.8864C699.773 80.7102 699.915 81.4086 700.199 81.9815C700.488 82.5497 700.888 82.983 701.4 83.2812C701.911 83.5748 702.505 83.7216 703.182 83.7216C703.623 83.7216 704.02 83.66 704.375 83.5369C704.735 83.4091 705.045 83.2197 705.306 82.9688C705.566 82.7131 705.767 82.3958 705.909 82.017L707.529 82.4716C707.358 83.0208 707.072 83.5038 706.669 83.9205C706.267 84.3324 705.77 84.6544 705.178 84.8864C704.586 85.1136 703.921 85.2273 703.182 85.2273ZM711.925 70.4545V85H710.249V70.4545H711.925ZM719.427 85.2273C718.442 85.2273 717.578 84.9929 716.835 84.5241C716.096 84.0554 715.518 83.3996 715.102 82.5568C714.69 81.714 714.484 80.7292 714.484 79.6023C714.484 78.4659 714.69 77.474 715.102 76.6264C715.518 75.7789 716.096 75.1207 716.835 74.652C717.578 74.1832 718.442 73.9489 719.427 73.9489C720.412 73.9489 721.273 74.1832 722.012 74.652C722.755 75.1207 723.333 75.7789 723.745 76.6264C724.162 77.474 724.37 78.4659 724.37 79.6023C724.37 80.7292 724.162 81.714 723.745 82.5568C723.333 83.3996 722.755 84.0554 722.012 84.5241C721.273 84.9929 720.412 85.2273 719.427 85.2273ZM719.427 83.7216C720.175 83.7216 720.79 83.5298 721.273 83.1463C721.756 82.7628 722.114 82.2585 722.346 81.6335C722.578 81.0085 722.694 80.3314 722.694 79.6023C722.694 78.8731 722.578 78.1937 722.346 77.5639C722.114 76.9342 721.756 76.4252 721.273 76.0369C720.79 75.6487 720.175 75.4545 719.427 75.4545C718.679 75.4545 718.063 75.6487 717.58 76.0369C717.097 76.4252 716.74 76.9342 716.508 77.5639C716.276 78.1937 716.16 78.8731 716.16 79.6023C716.16 80.3314 716.276 81.0085 716.508 81.6335C716.74 82.2585 717.097 82.7628 717.58 83.1463C718.063 83.5298 718.679 83.7216 719.427 83.7216ZM729.029 85L725.705 74.0909H727.467L729.825 82.4432H729.938L732.268 74.0909H734.058L736.359 82.4148H736.472L738.83 74.0909H740.592L737.268 85H735.62L733.234 76.6193H733.063L730.677 85H729.029ZM742.545 85.1136C742.194 85.1136 741.894 84.9882 741.643 84.7372C741.392 84.4863 741.266 84.1856 741.266 83.8352C741.266 83.4848 741.392 83.1842 741.643 82.9332C741.894 82.6823 742.194 82.5568 742.545 82.5568C742.895 82.5568 743.196 82.6823 743.447 82.9332C743.698 83.1842 743.823 83.4848 743.823 83.8352C743.823 84.0672 743.764 84.2803 743.646 84.4744C743.532 84.6686 743.378 84.8248 743.184 84.9432C742.995 85.0568 742.781 85.1136 742.545 85.1136Z"
              fill="black"/>
        <path d="M33.0082 14.8182L29.9897 33H27.788L30.8065 14.8182H33.0082ZM45.5548 22.4176L43.5661 22.9503C43.4951 22.6307 43.3708 22.3229 43.1933 22.027C43.0216 21.7251 42.7553 21.4795 42.3943 21.2901C42.0392 21.0948 41.5538 20.9972 40.9383 20.9972C40.1038 20.9972 39.3788 21.1895 38.7632 21.5742C38.1477 21.953 37.7955 22.4354 37.7068 23.0213C37.618 23.5362 37.7364 23.9476 38.0619 24.2553C38.3874 24.5631 38.9319 24.8146 39.6954 25.0099L41.6485 25.5071C42.8204 25.8089 43.6549 26.2617 44.1521 26.8654C44.6552 27.4632 44.8268 28.2415 44.667 29.2003C44.5368 29.9815 44.1965 30.6799 43.646 31.2955C43.0956 31.911 42.3913 32.3963 41.5331 32.7514C40.6749 33.1065 39.7191 33.2841 38.6656 33.2841C37.2629 33.2841 36.1561 32.9822 35.3453 32.3786C34.5344 31.7689 34.1024 30.8871 34.0491 29.733L36.1443 29.2358C36.1975 29.9638 36.4579 30.5142 36.9255 30.8871C37.399 31.254 38.0619 31.4375 38.9142 31.4375C39.8907 31.4375 40.7045 31.2304 41.3556 30.8161C42.0066 30.3958 42.3765 29.8928 42.4653 29.3068C42.5541 28.8274 42.4594 28.4279 42.1812 28.1083C41.9089 27.7887 41.4355 27.549 40.7607 27.3892L38.5945 26.8565C37.3872 26.5547 36.5408 26.093 36.0555 25.4716C35.5761 24.8501 35.4163 24.0689 35.5761 23.1278C35.7063 22.3584 36.0377 21.6778 36.5704 21.0859C37.109 20.4941 37.7837 20.0295 38.5945 19.6921C39.4113 19.3548 40.2991 19.1861 41.2579 19.1861C42.6073 19.1861 43.6164 19.482 44.2852 20.0739C44.954 20.6598 45.3772 21.4411 45.5548 22.4176ZM51.1589 33.3196C50.2948 33.3196 49.5372 33.1568 48.8862 32.8313C48.2351 32.4999 47.7528 32.0234 47.4391 31.402C47.1254 30.7746 47.0396 30.017 47.1816 29.1293C47.3178 28.348 47.5811 27.7147 47.9718 27.2294C48.3624 26.7382 48.8359 26.3535 49.3922 26.0753C49.9545 25.7912 50.5582 25.5811 51.2033 25.445C51.8543 25.3029 52.5024 25.1934 53.1475 25.1165C53.988 25.0099 54.6716 24.9271 55.1983 24.8679C55.7251 24.8087 56.1216 24.7111 56.388 24.5749C56.6543 24.4388 56.8171 24.205 56.8762 23.8736V23.8026C57.0183 22.9325 56.9029 22.2549 56.53 21.7695C56.1571 21.2783 55.4913 21.0327 54.5325 21.0327C53.5382 21.0327 52.7066 21.2517 52.0378 21.6896C51.369 22.1276 50.8748 22.5952 50.5552 23.0923L48.7086 22.3821C49.194 21.5535 49.774 20.9084 50.4487 20.4467C51.1234 19.9792 51.8307 19.6536 52.5705 19.4702C53.3103 19.2808 54.0235 19.1861 54.71 19.1861C55.148 19.1861 55.6422 19.2393 56.1926 19.3459C56.7431 19.4465 57.258 19.6566 57.7374 19.9762C58.2227 20.2958 58.5867 20.7782 58.8294 21.4233C59.0779 22.0684 59.1135 22.9325 58.9359 24.0156L57.4444 33H55.3493L55.6689 31.1534H55.5623C55.3729 31.4493 55.0829 31.766 54.6923 32.1033C54.3076 32.4407 53.8193 32.7277 53.2275 32.9645C52.6415 33.2012 51.952 33.3196 51.1589 33.3196ZM51.7626 31.4375C52.5912 31.4375 53.3162 31.2747 53.9377 30.9492C54.565 30.6237 55.0681 30.2035 55.4469 29.6886C55.8316 29.1737 56.0713 28.6321 56.166 28.0639L56.4856 26.1463C56.3791 26.2528 56.169 26.3505 55.8553 26.4393C55.5416 26.5221 55.1865 26.5961 54.79 26.6612C54.3993 26.7204 54.0176 26.7737 53.6447 26.821C53.2778 26.8625 52.9818 26.898 52.7569 26.9276C52.2006 26.9986 51.6709 27.114 51.1678 27.2738C50.6706 27.4277 50.2504 27.6615 49.9071 27.9751C49.5698 28.2829 49.3597 28.7031 49.2768 29.2358C49.1525 29.9638 49.3271 30.5142 49.8006 30.8871C50.2741 31.254 50.9281 31.4375 51.7626 31.4375ZM61.2686 33L63.5413 19.3636H65.6365L63.3637 33H61.2686ZM65.2281 17.0554C64.8197 17.0554 64.4675 16.9163 64.1716 16.6381C63.8816 16.36 63.7366 16.0256 63.7366 15.6349C63.7366 15.2443 63.8816 14.9099 64.1716 14.6317C64.4675 14.3536 64.8197 14.2145 65.2281 14.2145C65.6365 14.2145 65.9856 14.3536 66.2757 14.6317C66.5716 14.9099 66.7195 15.2443 66.7195 15.6349C66.7195 16.0256 66.5716 16.36 66.2757 16.6381C65.9856 16.9163 65.6365 17.0554 65.2281 17.0554ZM71.1784 33.3196C70.3143 33.3196 69.5568 33.1568 68.9057 32.8313C68.2547 32.4999 67.7723 32.0234 67.4586 31.402C67.1449 30.7746 67.0591 30.017 67.2012 29.1293C67.3373 28.348 67.6007 27.7147 67.9913 27.2294C68.3819 26.7382 68.8554 26.3535 69.4118 26.0753C69.974 25.7912 70.5777 25.5811 71.2228 25.445C71.8739 25.3029 72.522 25.1934 73.1671 25.1165C74.0075 25.0099 74.6911 24.9271 75.2179 24.8679C75.7446 24.8087 76.1412 24.7111 76.4075 24.5749C76.6738 24.4388 76.8366 24.205 76.8958 23.8736V23.8026C77.0378 22.9325 76.9224 22.2549 76.5495 21.7695C76.1767 21.2783 75.5108 21.0327 74.552 21.0327C73.5577 21.0327 72.7261 21.2517 72.0574 21.6896C71.3886 22.1276 70.8944 22.5952 70.5748 23.0923L68.7282 22.3821C69.2135 21.5535 69.7935 20.9084 70.4682 20.4467C71.1429 19.9792 71.8502 19.6536 72.59 19.4702C73.3298 19.2808 74.043 19.1861 74.7296 19.1861C75.1676 19.1861 75.6618 19.2393 76.2122 19.3459C76.7626 19.4465 77.2775 19.6566 77.7569 19.9762C78.2422 20.2958 78.6062 20.7782 78.8489 21.4233C79.0975 22.0684 79.133 22.9325 78.9554 24.0156L77.464 33H75.3688L75.6884 31.1534H75.5819C75.3925 31.4493 75.1025 31.766 74.7118 32.1033C74.3271 32.4407 73.8388 32.7277 73.247 32.9645C72.661 33.2012 71.9715 33.3196 71.1784 33.3196ZM71.7821 31.4375C72.6107 31.4375 73.3358 31.2747 73.9572 30.9492C74.5846 30.6237 75.0877 30.2035 75.4664 29.6886C75.8511 29.1737 76.0908 28.6321 76.1855 28.0639L76.5051 26.1463C76.3986 26.2528 76.1885 26.3505 75.8748 26.4393C75.5611 26.5221 75.206 26.5961 74.8095 26.6612C74.4189 26.7204 74.0371 26.7737 73.6642 26.821C73.2973 26.8625 73.0014 26.898 72.7765 26.9276C72.2201 26.9986 71.6904 27.114 71.1873 27.2738C70.6902 27.4277 70.2699 27.6615 69.9267 27.9751C69.5893 28.2829 69.3792 28.7031 69.2963 29.2358C69.1721 29.9638 69.3467 30.5142 69.8201 30.8871C70.2936 31.254 70.9476 31.4375 71.7821 31.4375ZM84.7327 24.7969L83.3833 33H81.2881L84.3066 14.8182H86.4017L85.3009 21.4943H85.4784C85.9046 20.7841 86.4727 20.2218 87.183 19.8075C87.8991 19.3932 88.7987 19.1861 89.8818 19.1861C90.8051 19.1861 91.5834 19.3725 92.2167 19.7454C92.8559 20.1123 93.3057 20.6776 93.5661 21.4411C93.8325 22.1986 93.8709 23.1634 93.6816 24.3352L92.2256 33H90.1304L91.5509 24.4773C91.7284 23.3942 91.5834 22.5567 91.1159 21.9648C90.6542 21.3671 89.9351 21.0682 88.9585 21.0682C88.272 21.0682 87.6328 21.2132 87.0409 21.5032C86.455 21.7932 85.9578 22.2164 85.5494 22.7727C85.147 23.3291 84.8747 24.0038 84.7327 24.7969Z"
              fill="black"/>
        <path d="M757.914 257.421L744.6 268.515C742.972 269.872 740.5 268.714 740.5 266.595V244.405C740.5 242.286 742.972 241.128 744.6 242.485L757.914 253.579C759.114 254.579 759.114 256.421 757.914 257.421Z"
              stroke="black"/>
    </g>
    <defs>
        <filter id="filter0_d_0_1" x="-3" y="0" width="804" height="304" filterUnits="userSpaceOnUse"
                color-interpolation-filters="sRGB">
            <feFlood flood-opacity="0" result="BackgroundImageFix"/>
            <feColorMatrix in="SourceAlpha" type="matrix" values="0 0 0 0 0 0 0 0 0 0 0 0 0 0 0 0 0 0 127 0"
                           result="hardAlpha"/>
            <feOffset dy="4"/>
            <feGaussianBlur stdDeviation="2"/>
            <feComposite in2="hardAlpha" operator="out"/>
            <feColorMatrix type="matrix" values="0 0 0 0 0 0 0 0 0 0 0 0 0 0 0 0 0 0 0.25 0"/>
            <feBlend mode="normal" in2="BackgroundImageFix" result="effect1_dropShadow_0_1"/>
            <feBlend mode="normal" in="SourceGraphic" in2="effect1_dropShadow_0_1" result="shape"/>
        </filter>
        <filter id="filter1_d_0_1" x="0" y="2" width="123" height="53" filterUnits="userSpaceOnUse"
                color-interpolation-filters="sRGB">
            <feFlood flood-opacity="0" result="BackgroundImageFix"/>
            <feColorMatrix in="SourceAlpha" type="matrix" values="0 0 0 0 0 0 0 0 0 0 0 0 0 0 0 0 0 0 127 0"
                           result="hardAlpha"/>
            <feOffset dy="4"/>
            <feGaussianBlur stdDeviation="2"/>
            <feComposite in2="hardAlpha" operator="out"/>
            <feColorMatrix type="matrix" values="0 0 0 0 0 0 0 0 0 0 0 0 0 0 0 0 0 0 0.25 0"/>
            <feBlend mode="normal" in2="BackgroundImageFix" result="effect1_dropShadow_0_1"/>
            <feBlend mode="normal" in="SourceGraphic" in2="effect1_dropShadow_0_1" result="shape"/>
        </filter>
        <filter id="filter2_d_0_1" x="0" y="50" width="797" height="254" filterUnits="userSpaceOnUse"
                color-interpolation-filters="sRGB">
            <feFlood flood-opacity="0" result="BackgroundImageFix"/>
            <feColorMatrix in="SourceAlpha" type="matrix" values="0 0 0 0 0 0 0 0 0 0 0 0 0 0 0 0 0 0 127 0"
                           result="hardAlpha"/>
            <feOffset dy="4"/>
            <feGaussianBlur stdDeviation="2"/>
            <feComposite in2="hardAlpha" operator="out"/>
            <feColorMatrix type="matrix" values="0 0 0 0 0 0 0 0 0 0 0 0 0 0 0 0 0 0 0.25 0"/>
            <feBlend mode="normal" in2="BackgroundImageFix" result="effect1_dropShadow_0_1"/>
            <feBlend mode="normal" in="SourceGraphic" in2="effect1_dropShadow_0_1" result="shape"/>
        </filter>
        <clipPath id="clip0_0_1">
            <rect width="796" height="296" fill="white" transform="translate(1)"/>
        </clipPath>
    </defs>
</svg>
