<svg width="808" height="351" viewBox="0 0 808 351" fill="none" xmlns="http://www.w3.org/2000/svg">


    <g id="Frame 1" filter="url(#filter0_d_3_2)">
        <g id="textbox-name" filter="url(#filter1_d_3_2)">
            <rect x="4" width="115" height="45" rx="7" fill="white"/>
            <rect x="4.5" y="0.5" width="114" height="44" rx="6.5" stroke="black"/>
        </g>
        <g id="textbox" filter="url(#filter2_d_3_2)">
            <path d="M4 53C4 50.2386 6.23858 48 9 48H788C790.761 48 793 50.2386 793 53V289C793 291.761 790.761 294 788 294H9.00002C6.2386 294 4 291.761 4 289V53Z"
                  fill="#FFFDFD"/>
            <path d="M9 48.5H788C790.485 48.5 792.5 50.5147 792.5 53V289C792.5 291.485 790.485 293.5 788 293.5H9.00002C6.51474 293.5 4.5 291.485 4.5 289V53C4.5 50.5147 6.51472 48.5 9 48.5Z"
                  stroke="black"/>
        </g>
        <text id="text-dialouge" fill="black" xml:space="preserve" style="white-space: pre" font-family="Inter"
              font-size="32" letter-spacing="0em"><tspan x="33" y="102.136">Hi, I&#x2019;m Isaiah, and I&#x2019;m a software engineer. Check </tspan>
            <tspan x="33" y="141.136">out some of my work by scrolling down. Also click next to see my skills!.</tspan></text>
        <text id="text-name" fill="black" xml:space="preserve" style="white-space: pre" font-family="Inter"
              font-size="25" letter-spacing="0em"><tspan x="26.7227" y="31.0909">Isaiah </tspan></text>
        <path id="arrow-right" class="slide-right"
              d="M757.914 257.421L744.6 268.515C742.972 269.872 740.5 268.714 740.5 266.595V244.405C740.5 242.286 742.972 241.128 744.6 242.485L757.914 253.579C759.114 254.579 759.114 256.421 757.914 257.421Z"
              fill="white" stroke="black"/>
    </g>
    <defs>
        <filter id="filter0_d_3_2" x="-3" y="0" width="815" height="359" filterUnits="userSpaceOnUse"
                color-interpolation-filters="sRGB">
            <feFlood flood-opacity="0" result="BackgroundImageFix"/>
            <feColorMatrix in="SourceAlpha" type="matrix" values="0 0 0 0 0 0 0 0 0 0 0 0 0 0 0 0 0 0 127 0"
                           result="hardAlpha"/>
            <feOffset dy="4"/>
            <feGaussianBlur stdDeviation="2"/>
            <feComposite in2="hardAlpha" operator="out"/>
            <feColorMatrix type="matrix" values="0 0 0 0 0 0 0 0 0 0 0 0 0 0 0 0 0 0 0.25 0"/>
            <feBlend mode="normal" in2="BackgroundImageFix" result="effect1_dropShadow_3_2"/>
            <feBlend mode="normal" in="SourceGraphic" in2="effect1_dropShadow_3_2" result="shape"/>
        </filter>
        <filter id="filter1_d_3_2" x="4" y="0" width="120" height="49" filterUnits="userSpaceOnUse"
                color-interpolation-filters="sRGB">
            <feFlood flood-opacity="0" result="BackgroundImageFix"/>
            <feColorMatrix in="SourceAlpha" type="matrix" values="0 0 0 0 0 0 0 0 0 0 0 0 0 0 0 0 0 0 127 0"
                           result="hardAlpha"/>
            <feOffset dx="5" dy="4"/>
            <feComposite in2="hardAlpha" operator="out"/>
            <feColorMatrix type="matrix" values="0 0 0 0 0 0 0 0 0 0 0 0 0 0 0 0 0 0 1 0"/>
            <feBlend mode="normal" in2="BackgroundImageFix" result="effect1_dropShadow_3_2"/>
            <feBlend mode="normal" in="SourceGraphic" in2="effect1_dropShadow_3_2" result="shape"/>
        </filter>
        <filter id="filter2_d_3_2" x="4" y="48" width="799" height="256" filterUnits="userSpaceOnUse"
                color-interpolation-filters="sRGB">
            <feFlood flood-opacity="0" result="BackgroundImageFix"/>
            <feColorMatrix in="SourceAlpha" type="matrix" values="0 0 0 0 0 0 0 0 0 0 0 0 0 0 0 0 0 0 127 0"
                           result="hardAlpha"/>
            <feOffset dx="10" dy="10"/>
            <feComposite in2="hardAlpha" operator="out"/>
            <feColorMatrix type="matrix" values="0 0 0 0 0 0 0 0 0 0 0 0 0 0 0 0 0 0 1 0"/>
            <feBlend mode="normal" in2="BackgroundImageFix" result="effect1_dropShadow_3_2"/>
            <feBlend mode="normal" in="SourceGraphic" in2="effect1_dropShadow_3_2" result="shape"/>
        </filter>
    </defs>
</svg>
